<?xml version="1.0" standalone="no"?>
<!DOCTYPE svg PUBLIC "-//W3C//DTD SVG 20010904//EN"
 "http://www.w3.org/TR/2001/REC-SVG-20010904/DTD/svg10.dtd">
<svg version="1.0" xmlns="http://www.w3.org/2000/svg"
 width="64" height="64" viewBox="0 0 1024.000000 816.000000"
 preserveAspectRatio="xMidYMid meet">

<g transform="translate(0.000000,816.000000) scale(0.100000,-0.100000)"
fill="#000000" stroke="none">
<path d="M1987 8149 c-159 -21 -347 -106 -486 -222 -152 -125 -284 -338 -338
-542 -26 -99 -26 -103 -28 -515 -4 -740 -59 -1177 -199 -1605 -181 -548 -467
-852 -863 -916 l-73 -12 0 -257 0 -257 73 -12 c553 -89 905 -667 1021 -1676
30 -256 38 -436 41 -845 2 -412 2 -416 28 -515 54 -204 186 -417 338 -542 144
-120 325 -201 499 -222 120 -15 6138 -15 6247 0 344 48 651 292 783 622 72
182 72 179 80 737 6 354 13 551 24 660 117 1090 448 1670 1016 1777 l90 17 0
256 0 256 -90 17 c-445 84 -743 457 -909 1139 -98 400 -129 728 -134 1403 -4
438 -5 451 -73 622 -133 339 -447 589 -794 632 -105 14 -6151 13 -6253 0z
m3676 -1912 c285 -57 499 -157 660 -307 150 -140 242 -293 294 -486 23 -88 26
-118 26 -264 0 -139 -3 -178 -21 -245 -24 -88 -94 -239 -144 -313 -46 -68
-173 -197 -244 -248 -81 -58 -212 -120 -304 -143 l-75 -19 40 -6 c420 -69 720
-278 876 -610 159 -340 121 -808 -92 -1126 -214 -319 -598 -513 -1104 -560
-65 -6 -503 -10 -1067 -10 l-958 0 0 2180 0 2181 1013 -4 c914 -3 1020 -5
1100 -20z"/>
<path d="M4260 5055 l0 -635 461 0 c518 0 603 7 771 64 125 43 197 85 279 166
127 126 186 309 161 506 -14 112 -40 183 -94 265 -94 141 -274 232 -513 259
-49 5 -309 10 -577 10 l-488 0 0 -635z"/>
<path d="M4260 3176 l0 -706 498 0 c273 0 549 5 612 10 398 35 647 192 737
464 24 73 27 96 27 231 1 118 -3 163 -17 209 -33 108 -75 177 -156 256 -114
113 -248 173 -485 217 -64 12 -202 16 -648 20 l-568 5 0 -706z"/>
</g>
</svg>
