<svg version="1.1" id="Layer_1" xmlns="http://www.w3.org/2000/svg" xmlns:xlink="http://www.w3.org/1999/xlink" x="0px" y="0px"
	 width="100%" viewBox="0 0 200 200" enable-background="new 0 0 200 200" xml:space="preserve">
<path fill="#FCFEFC" opacity="1.000000" stroke="none" 
	d="
M115.000000,201.000000 
	C76.690323,201.000000 38.880650,201.000000 1.035486,201.000000 
	C1.035486,134.398697 1.035486,67.797363 1.035486,1.098018 
	C67.559509,1.098018 134.119202,1.098018 200.839447,1.098018 
	C200.839447,67.666359 200.839447,134.333145 200.839447,201.000000 
	C172.464310,201.000000 143.982162,201.000000 115.000000,201.000000 
M114.481705,191.012924 
	C134.371826,179.495041 154.256790,167.968277 174.154831,156.464096 
	C181.201904,152.389786 185.118530,146.563141 185.094315,138.186569 
	C185.021088,112.854881 185.048325,87.522842 185.070923,62.190971 
	C185.077133,55.238045 182.112473,50.029942 176.149841,46.522930 
	C168.827209,42.216038 161.494583,37.925770 154.136475,33.679981 
	C153.050995,33.053638 151.801422,32.711651 150.075546,32.015282 
	C150.075546,35.051525 150.076462,37.513985 150.075409,39.976444 
	C150.063553,67.641418 149.969559,95.306847 150.122696,122.970909 
	C150.147202,127.400505 148.479462,130.206665 144.826920,132.296310 
	C132.105255,139.574463 119.423347,146.922104 106.707344,154.210205 
	C102.607101,156.560242 98.547478,156.513779 94.403854,154.065582 
	C81.785378,146.610168 69.160110,139.162949 56.422600,131.914413 
	C52.915504,129.918640 51.673023,127.342216 51.713543,123.414391 
	C51.864815,108.750320 51.890888,94.082283 51.707611,79.418938 
	C51.646046,74.493294 53.568790,71.296776 57.768688,68.891106 
	C69.763214,62.020760 81.730232,55.094303 93.541656,47.916080 
	C98.692070,44.785980 103.267845,44.487835 108.347923,47.998867 
	C112.335396,50.754753 116.748672,52.894543 121.748337,55.751144 
	C121.748337,44.718971 121.069511,34.851452 121.955727,25.126553 
	C122.711617,16.831717 119.426682,12.521162 112.448067,8.916678 
	C104.763214,4.947421 97.784569,4.464765 90.267181,8.907806 
	C69.475037,21.196707 48.612484,33.367481 27.714968,45.476570 
	C20.210815,49.824863 16.767889,56.055031 16.836025,64.774231 
	C17.022249,88.604759 17.038250,112.438988 16.824287,136.269073 
	C16.742323,145.397827 20.406700,151.733292 28.287880,156.255920 
	C48.512627,167.862015 68.717865,179.513657 88.666412,191.584167 
	C97.413979,196.877151 105.491440,197.020813 114.481705,191.012924 
M99.946304,123.462227 
	C106.756981,119.894951 113.602989,116.391403 120.325378,112.664879 
	C121.021477,112.278999 121.225204,110.570770 121.243652,109.469185 
	C121.341110,103.649345 121.545563,97.811913 121.173828,92.015160 
	C121.059204,90.227722 119.646912,87.967728 118.137306,86.930649 
	C113.763313,83.925781 109.160812,81.178398 104.386963,78.869713 
	C102.612976,78.011780 99.752594,77.891869 98.002586,78.725838 
	C80.285812,87.168777 79.609688,88.447586 80.516289,108.080132 
	C80.523956,108.246223 80.462006,108.448822 80.535591,108.573608 
	C81.716026,110.575089 82.451942,113.244995 84.195091,114.430435 
	C88.989212,117.690704 94.207245,120.327621 99.946304,123.462227 
z"/>
<path fill="#13C03D" opacity="1.000000" stroke="none" 
	d="
M114.160583,191.197495 
	C105.491440,197.020813 97.413979,196.877151 88.666412,191.584167 
	C68.717865,179.513657 48.512627,167.862015 28.287880,156.255920 
	C20.406700,151.733292 16.742323,145.397827 16.824287,136.269073 
	C17.038250,112.438988 17.022249,88.604759 16.836025,64.774231 
	C16.767889,56.055031 20.210815,49.824863 27.714968,45.476570 
	C48.612484,33.367481 69.475037,21.196707 90.267181,8.907806 
	C97.784569,4.464765 104.763214,4.947421 112.448067,8.916678 
	C119.426682,12.521162 122.711617,16.831717 121.955727,25.126553 
	C121.069511,34.851452 121.748337,44.718971 121.748337,55.751144 
	C116.748672,52.894543 112.335396,50.754753 108.347923,47.998867 
	C103.267845,44.487835 98.692070,44.785980 93.541656,47.916080 
	C81.730232,55.094303 69.763214,62.020760 57.768688,68.891106 
	C53.568790,71.296776 51.646046,74.493294 51.707611,79.418938 
	C51.890888,94.082283 51.864815,108.750320 51.713543,123.414391 
	C51.673023,127.342216 52.915504,129.918640 56.422600,131.914413 
	C69.160110,139.162949 81.785378,146.610168 94.403854,154.065582 
	C98.547478,156.513779 102.607101,156.560242 106.707344,154.210205 
	C119.423347,146.922104 132.105255,139.574463 144.826920,132.296310 
	C148.479462,130.206665 150.147202,127.400505 150.122696,122.970909 
	C149.969559,95.306847 150.063553,67.641418 150.075409,39.976444 
	C150.076462,37.513985 150.075546,35.051525 150.075546,32.015282 
	C151.801422,32.711651 153.050995,33.053638 154.136475,33.679981 
	C161.494583,37.925770 168.827209,42.216038 176.149841,46.522930 
	C182.112473,50.029942 185.077133,55.238045 185.070923,62.190971 
	C185.048325,87.522842 185.021088,112.854881 185.094315,138.186569 
	C185.118530,146.563141 181.201904,152.389786 174.154831,156.464096 
	C154.256790,167.968277 134.371826,179.495041 114.160583,191.197495 
z"/>
<path fill="#14BF3E" opacity="1.000000" stroke="none" 
	d="
M99.601929,123.336700 
	C94.207245,120.327621 88.989212,117.690704 84.195091,114.430435 
	C82.451942,113.244995 81.716026,110.575089 80.535591,108.573608 
	C80.462006,108.448822 80.523956,108.246223 80.516289,108.080132 
	C79.609688,88.447586 80.285812,87.168777 98.002586,78.725838 
	C99.752594,77.891869 102.612976,78.011780 104.386963,78.869713 
	C109.160812,81.178398 113.763313,83.925781 118.137306,86.930649 
	C119.646912,87.967728 121.059204,90.227722 121.173828,92.015160 
	C121.545563,97.811913 121.341110,103.649345 121.243652,109.469185 
	C121.225204,110.570770 121.021477,112.278999 120.325378,112.664879 
	C113.602989,116.391403 106.756981,119.894951 99.601929,123.336700 
z"/>
</svg>