<?xml version="1.0" encoding="UTF-8" standalone="no"?>
<!-- Created with Inkscape (http://www.inkscape.org/) -->

<svg
   version="1.1"
   id="svg2"
   width="648"
   height="240"
   viewBox="0 0 648 240"
   sodipodi:docname="Monogram Wordmark_CMYK_186+K.eps"
   xmlns:inkscape="http://www.inkscape.org/namespaces/inkscape"
   xmlns:sodipodi="http://sodipodi.sourceforge.net/DTD/sodipodi-0.dtd"
   xmlns="http://www.w3.org/2000/svg"
   xmlns:svg="http://www.w3.org/2000/svg">
  <defs
     id="defs6" />
  <sodipodi:namedview
     id="namedview4"
     pagecolor="#ffffff"
     bordercolor="#000000"
     borderopacity="0.25"
     inkscape:showpageshadow="2"
     inkscape:pageopacity="0.0"
     inkscape:pagecheckerboard="0"
     inkscape:deskcolor="#d1d1d1" />
  <g
     id="g8"
     inkscape:groupmode="layer"
     inkscape:label="ink_ext_XXXXXX"
     transform="matrix(1.3333333,0,0,-1.3333333,0,240)">
    <g
       id="g10"
       transform="scale(0.1)">
      <path
         d="m 2008.67,556.488 0.22,-120.218 c 0.13,-77.739 40.7,-131.758 142.89,-131.579 102.17,0.18 142.55,54.348 142.42,130.481 l -0.18,96.578 c -0.07,46.891 13.12,58.93 35.95,65.391 l -0.02,12.418 -96.97,-0.168 0.02,-12.43 c 22.85,-6.371 36.1,-18.371 36.18,-65.25 l 0.18,-96.582 c 0.11,-67.719 -35.49,-99.039 -102.82,-99.16 -66.91,-0.117 -103.03,31.07 -103.15,98.801 l -0.22,121.82 c -0.06,30.449 8.75,35.68 33.99,39.332 l -0.02,13.219 -121.82,-0.211 0.03,-13.219 c 25.25,-3.57 33.27,-8.762 33.32,-39.223 m 437.19,-234.859 c -22.84,3.172 -26.46,8.769 -26.5,30.812 l -0.16,92.571 c 20,18.066 36.41,26.918 50.84,26.937 19.64,0.039 25.26,-9.969 25.29,-28 l 0.17,-91.371 c 0.04,-22.039 -3.56,-27.648 -26.4,-30.898 l 0.03,-12.418 102.98,0.179 -0.02,12.418 c -22.85,3.161 -26.47,8.77 -26.5,30.813 l -0.17,95.777 c -0.06,32.051 -13.72,54.871 -54.2,54.801 -24.84,-0.039 -49.26,-15.32 -73.26,-35.801 l -0.07,38.473 -18.44,-0.031 -58.03,-38.172 0.02,-8.821 27.64,0.051 0.2,-106.59 c 0.04,-22.039 -3.57,-27.66 -26.4,-30.91 l 0.02,-12.418 102.99,0.18 z m 201.97,214.762 c 16.83,0.019 30.43,13.668 30.4,30.898 -0.03,15.231 -11.67,27.641 -27.29,27.609 -17.64,-0.027 -30.83,-13.679 -30.8,-30.507 0.02,-15.629 11.67,-28.032 27.69,-28 m 57.28,-214.301 c -24.85,3.57 -28.47,8.769 -28.51,30.808 l -0.26,153.481 -19.64,-0.027 -58.84,-38.582 0.02,-8.821 28.45,0.063 0.18,-106.203 c 0.04,-22.039 -3.95,-27.25 -28.39,-30.899 l 0.02,-12.43 107,0.192 z m 182.91,122.551 c 14.76,32.89 19.56,40.109 35.18,44.14 l -0.02,11.219 -78.93,-0.129 0.02,-11.223 c 26.05,-5.57 28.87,-18.789 16.9,-46.859 l -30.32,-72.59 -37.81,85.289 c -8.05,18.821 -6.87,29.641 20.77,32.903 l -0.02,12.418 -105.38,-0.188 0.02,-12.422 c 12.42,-3.179 17.64,-8.379 28.1,-30.808 l 68.78,-148.539 20.84,0.027 z m 210.14,-98.211 -10.83,8.402 c -10.8,-12.441 -27.21,-20.891 -46.04,-20.922 -36.87,-0.058 -57.76,27.949 -65.43,64.399 L 3096,438.602 c -2.48,42.468 -33.77,65.66 -73.45,65.589 -55.69,-0.101 -96.49,-45.062 -96.39,-100.75 0.1,-55.312 35.43,-97.32 97.54,-97.211 38.07,0.071 60.88,16.942 74.46,40.2 m -125.57,85.14 c -0.06,32.461 13.53,51.711 39.98,51.758 18.44,0.031 30.08,-13.168 34.93,-39.207 l -74.48,-25.781 c -0.41,4.41 -0.42,8.82 -0.43,13.23 m 251.03,-108.558 c -26.04,3.957 -29.67,9.566 -29.7,34.41 l -0.15,82.547 c 7.99,14.441 15.59,24.883 23.58,32.101 0.03,-15.629 10.87,-25.629 24.5,-25.601 13.62,0.019 26.82,10.871 26.78,31.711 -0.03,17.629 -10.07,28.429 -27.69,28.402 -19.64,-0.043 -34.84,-16.492 -49.22,-39.762 l -0.07,40.469 -17.64,-0.027 -58.03,-38.172 0.02,-8.82 27.64,0.05 0.19,-106.59 c 0.04,-22.039 -3.56,-27.66 -26.39,-30.898 l 0.02,-12.434 106.19,0.192 z m 208.68,46.859 c -0.06,37.258 -30.93,48.828 -59.8,57.988 -28.47,9.172 -48.12,15.153 -48.15,35.993 -0.02,11.218 8.37,21.648 24.8,21.679 20.44,0.028 38.5,-12.351 60.18,-36.761 l 10.41,4.832 -15.32,49.66 -6.41,-0.012 -7.2,-6.02 c -11.23,4.79 -24.06,7.571 -37.69,7.54 -42.47,-0.071 -70.07,-24.571 -70.01,-61.43 0.06,-37.27 30.94,-48.039 59.81,-57.602 28.47,-9.566 48.11,-15.148 48.14,-36.386 0.03,-13.223 -9.97,-23.25 -29.2,-23.293 -26.85,-0.047 -47.32,17.55 -71.82,48.761 l -10.81,-4.019 15.74,-62.492 6.81,0.011 11.61,8.442 c 13.23,-6.391 28.06,-9.973 44.49,-9.942 40.88,0.071 74.49,24.168 74.42,63.051 m 69.83,168.02 c 16.83,0.039 30.43,13.687 30.4,30.918 -0.03,15.23 -11.67,27.621 -27.3,27.601 -17.63,-0.031 -30.83,-13.68 -30.8,-30.512 0.03,-15.628 11.67,-28.027 27.7,-28.007 m 57.28,-214.282 c -24.85,3.563 -28.46,8.762 -28.5,30.801 l -0.28,153.481 -19.63,-0.039 -58.83,-38.571 0.01,-8.812 28.44,0.051 0.2,-106.2 c 0.04,-22.039 -3.96,-27.25 -28.4,-30.898 l 0.02,-12.434 106.99,0.192 z m 152.26,5.879 -6.04,12.813 c -10.81,-4.832 -20.42,-7.25 -28.83,-7.27 -18.83,-0.031 -23.66,9.578 -23.69,22.809 l -0.21,120.621 50.89,0.078 -0.04,22.852 -50.89,-0.09 -0.07,37.258 -7.2,-0.008 -72.05,-47.41 0.02,-12.832 29.25,0.062 0.24,-131.039 c 0.05,-26.051 14.89,-40.051 44.15,-40 22.84,0.039 45.26,7.688 64.47,22.156 m 107.08,-50.308 75.44,167.242 c 14.76,32.887 19.56,40.109 35.18,44.137 l -0.01,11.23 -78.95,-0.148 0.02,-11.219 c 26.05,-5.563 28.89,-18.781 16.91,-46.852 l -30.32,-72.59 -37.82,85.29 c -8.05,18.82 -6.87,29.64 20.78,32.902 l -0.02,12.418 -105.39,-0.192 0.02,-12.418 c 12.43,-3.179 17.25,-8.378 28.11,-30.8 l 67.17,-144.149 -11.18,-24.062 c -6.39,-14.039 -12.37,-24.469 -19.18,-30.489 -4.83,16.418 -14.07,25.219 -28.49,25.192 -14.43,-0.024 -26.83,-9.66 -26.8,-28.492 0.04,-18.84 15.28,-32.84 33.32,-32.809 25.64,0.051 41.65,12.899 61.21,55.809"
         style="fill:#211d1d;fill-opacity:1;fill-rule:nonzero;stroke:none"
         id="path12" />
      <path
         d="m 2298.4,992.004 c -0.08,46.886 13.12,58.936 35.95,65.386 l -0.02,12.42 -96.98,-0.17 0.03,-12.43 c 22.85,-6.36 36.1,-18.36 36.17,-65.249 l 0.26,-141.055 -204.73,206.014 c -11.24,11.2 -15.65,12.4 -22.86,12.38 l -75.73,-0.13 0.02,-12.42 c 16.43,-1.57 26.05,-7.97 44.92,-25.97 6.02,-5.6 11.64,-12.4 11.67,-23.62 l 0.28,-160.695 c 0.08,-46.887 -13.12,-58.934 -35.94,-65.387 l 0.01,-12.418 96.98,0.172 -0.03,12.418 c -22.85,6.371 -36.1,18.371 -36.17,65.258 l -0.28,151.472 230.42,-230.808 16.43,0.027 z m 261.48,-124.965 c -0.09,52.496 -35.43,96.516 -99.94,96.402 -64.92,-0.117 -103.7,-47.07 -103.6,-101.566 0.09,-52.5 35.43,-96.516 99.94,-96.406 64.91,0.109 103.7,47.074 103.6,101.57 m -153.49,17.766 c -0.07,36.062 15.51,58.933 48.38,58.992 42.47,0.074 54.99,-52 55.06,-99.688 0.07,-36.062 -15.51,-58.937 -48.38,-58.988 -42.47,-0.082 -54.99,51.992 -55.06,99.684 m 289.49,-102.477 c -26.06,3.961 -29.68,9.563 -29.72,34.41 l -0.14,82.547 c 7.98,14.445 15.58,24.875 23.58,32.102 0.03,-15.625 10.87,-25.625 24.49,-25.602 13.62,0.024 26.83,10.863 26.79,31.703 -0.03,17.633 -10.07,28.434 -27.7,28.403 -19.64,-0.032 -34.83,-16.493 -49.22,-39.758 l -0.06,40.472 -17.64,-0.031 -58.04,-38.172 0.02,-8.812 27.65,0.047 0.19,-106.598 c 0.04,-22.039 -3.56,-27.66 -26.39,-30.898 l 0.02,-12.422 106.19,0.179 z m 196.33,5.953 -6.04,12.817 c -10.81,-4.828 -20.43,-7.246 -28.84,-7.27 -18.83,-0.027 -23.66,9.578 -23.68,22.805 l -0.21,120.617 50.89,0.094 -0.04,22.84 -50.89,-0.094 -0.07,37.273 -7.22,-0.015 -72.04,-47.414 0.02,-12.821 29.26,0.047 0.22,-131.035 c 0.05,-26.047 14.91,-40.043 44.15,-39.996 22.85,0.043 45.28,7.691 64.49,22.152 m 115.01,-5.41 c -22.86,3.168 -26.47,8.77 -26.51,30.813 l -0.16,92.968 c 19.21,17.668 34.01,26.512 50.85,26.539 19.63,0.039 25.25,-9.968 25.29,-28.003 l 0.16,-91.368 c 0.03,-22.039 -3.56,-27.648 -26.39,-30.898 l 0.02,-12.422 102.98,0.18 -0.02,12.422 c -22.84,3.16 -26.47,8.769 -26.51,30.808 l -0.16,95.778 c -0.06,32.054 -13.72,54.871 -54.19,54.804 -24.45,-0.047 -48.47,-14.519 -72.07,-34.597 l -0.29,158.695 -14.82,-0.03 -64.43,-42.19 0.01,-8.82 29.24,0.06 0.4,-224.012 c 0.04,-22.039 -3.55,-27.657 -26.38,-30.907 l 0.02,-12.421 102.98,0.179 z m 318.92,24.211 -10.83,8.398 c -10.8,-12.441 -27.2,-20.89 -46.04,-20.921 -36.87,-0.059 -57.76,27.949 -65.43,64.406 l 120.14,40.281 c -2.48,42.477 -33.78,65.664 -73.44,65.59 -55.71,-0.098 -96.5,-45.051 -96.4,-100.75 0.1,-55.305 35.44,-97.316 97.55,-97.207 38.07,0.07 60.88,16.941 74.45,40.203 m -125.56,85.137 c -0.06,32.457 13.53,51.715 39.98,51.765 18.42,0.032 30.07,-13.171 34.93,-39.211 L 3201,878.992 c -0.41,4.41 -0.41,8.821 -0.42,13.227 m 284.3,-123.328 c 17.24,0.031 35.66,8.078 47.66,16.519 l -3.62,11.211 c -19.63,-3.641 -26.85,-0.851 -26.88,12.375 l -0.18,107 c -0.06,32.055 -14.12,49.262 -59.4,49.184 -50.89,-0.094 -88.1,-27.407 -88.06,-53.051 0.02,-12.43 8.46,-22.828 22.88,-22.805 16.43,0.031 24.43,10.864 26.81,21.684 2.38,12.43 -1.64,21.64 -7.65,26.836 10,4.832 20.01,7.254 30.43,7.273 17.23,0.028 25.66,-5.969 25.69,-21.597 l 0.07,-40.075 c -71.7,-17.757 -104.53,-33.441 -104.47,-71.511 0.06,-29.254 18.92,-44.856 48.57,-44.793 18.84,0.031 40.46,8.078 58.87,22.539 2.83,-13.219 12.06,-20.809 29.28,-20.789 m -88.25,53.543 c -0.03,20.441 9.17,30.074 56.03,42.98 l 0.1,-58.105 c -11.21,-8.84 -21.22,-12.86 -31.23,-12.879 -15.63,-0.032 -24.86,8.371 -24.9,28.004 m 308.54,8.16 c -0.07,37.269 -30.94,48.84 -59.81,58.004 -28.47,9.164 -48.11,15.14 -48.15,35.98 -0.02,11.223 8.38,21.656 24.8,21.68 20.44,0.039 38.5,-12.352 60.18,-36.758 l 10.41,4.824 -15.32,49.668 -6.41,-0.015 -7.2,-6.02 c -11.23,4.785 -24.06,7.57 -37.68,7.543 -42.47,-0.07 -70.08,-24.562 -70.01,-61.434 0.05,-37.265 30.93,-48.031 59.8,-57.597 28.47,-9.571 48.12,-15.141 48.15,-36.383 0.02,-13.227 -9.98,-23.266 -29.21,-23.297 -26.85,-0.039 -47.32,17.551 -71.81,48.766 l -10.82,-4.028 15.74,-62.488 6.82,0.012 11.6,8.437 c 13.23,-6.386 28.07,-9.968 44.49,-9.937 40.88,0.07 74.49,24.179 74.43,63.043 m 151.54,-40.606 -6.04,12.813 c -10.81,-4.832 -20.42,-7.242 -28.83,-7.262 -18.84,-0.027 -23.67,9.578 -23.69,22.801 l -0.21,120.617 50.89,0.09 -0.04,22.84 -50.89,-0.086 -0.07,37.265 -7.21,-0.015 -72.05,-47.41 0.03,-12.825 29.25,0.055 0.24,-131.039 c 0.03,-26.051 14.89,-40.051 44.14,-39.992 22.84,0.031 45.27,7.691 64.48,22.148 m 185.09,18.36 -10.83,8.398 c -10.8,-12.441 -27.21,-20.887 -46.05,-20.918 -36.86,-0.066 -57.75,27.949 -65.43,64.399 l 120.15,40.289 c -2.48,42.472 -33.78,65.66 -73.45,65.589 -55.7,-0.101 -96.49,-45.05 -96.4,-100.753 0.1,-55.305 35.44,-97.313 97.55,-97.211 38.07,0.07 60.88,16.937 74.46,40.207 m -125.57,85.136 c -0.06,32.457 13.54,51.719 39.98,51.762 18.43,0.035 30.08,-13.168 34.93,-39.207 l -74.49,-25.777 c -0.41,4.406 -0.41,8.812 -0.42,13.222 M 4167.27,784.93 c -26.06,3.961 -29.67,9.57 -29.72,34.41 l -0.15,82.547 c 7.99,14.445 15.59,24.875 23.59,32.101 0.03,-15.625 10.87,-25.625 24.49,-25.601 13.62,0.023 26.82,10.863 26.8,31.703 -0.04,17.633 -10.07,28.433 -27.71,28.406 -19.63,-0.035 -34.83,-16.496 -49.22,-39.762 l -0.07,40.473 -17.62,-0.027 -58.04,-38.176 0.01,-8.813 27.65,0.047 0.19,-106.593 c 0.04,-22.043 -3.55,-27.657 -26.4,-30.907 l 0.03,-12.418 106.18,0.192 z m 159.47,0.281 c -22.85,3.168 -26.47,8.769 -26.51,30.809 l -0.16,92.566 c 20.01,18.074 36.41,26.914 50.85,26.941 19.63,0.039 25.25,-9.972 25.29,-28.004 l 0.16,-91.367 c 0.04,-22.047 -3.56,-27.656 -26.39,-30.906 l 0.02,-12.422 102.98,0.184 -0.02,12.418 c -22.84,3.172 -26.47,8.769 -26.51,30.812 l -0.16,95.778 c -0.06,32.054 -13.72,54.875 -54.19,54.804 -24.84,-0.043 -49.27,-15.316 -73.27,-35.797 l -0.07,38.469 -18.43,-0.031 -58.04,-38.172 0.01,-8.813 27.66,0.047 0.19,-106.597 c 0.04,-22.039 -3.56,-27.66 -26.4,-30.899 l 0.03,-12.422 102.98,0.18 -0.02,12.422"
         style="fill:#211d1d;fill-opacity:1;fill-rule:nonzero;stroke:none"
         id="path14" />
      <path
         d="m 1725.35,1167.28 c 0,196.04 65.89,260.32 197.66,310.13 v 32.13 h -432.26 v -32.13 c 131.77,-49.81 197.65,-114.09 197.65,-310.13 V 592.02 l -914.318,874.14 c -41.785,38.57 -53.027,43.38 -80.352,43.38 H 349.863 v -32.13 c 75.52,-8.03 120.52,-28.93 229.785,-134.98 l 41.778,-40.17 V 646.648 c 0,-196.039 -65.891,-260.32 -197.649,-310.128 V 304.379 H 856.023 V 336.52 C 724.266,386.328 658.379,450.609 658.379,646.648 V 1271.73 L 1693.22,296.352 h 32.13 v 870.928"
         style="fill:#dd1c2b;fill-opacity:1;fill-rule:nonzero;stroke:none"
         id="path16" />
    </g>
  </g>
</svg>
