<svg id="svg" version="1.1" xmlns="http://www.w3.org/2000/svg" xmlns:xlink="http://www.w3.org/1999/xlink" width="400" height="391.97041732699415" viewBox="0, 0, 400,391.97041732699415"><g id="svgg"><path id="path0" d="M169.700 30.742 C 156.817 33.653,149.608 46.183,153.737 58.485 C 154.029 59.354,154.241 60.083,154.207 60.104 C 137.829 70.527,145.251 95.204,164.521 94.396 L 167.291 94.280 167.763 95.419 C 173.914 110.257,196.104 110.803,203.198 96.291 C 203.622 95.423,203.891 95.096,204.117 95.174 C 204.293 95.234,205.103 95.519,205.917 95.806 C 213.085 98.340,221.364 95.572,225.657 89.204 C 226.415 88.080,226.634 87.886,227.015 87.999 C 227.265 88.073,228.619 88.190,230.024 88.259 C 247.565 89.118,259.765 71.227,252.744 54.941 C 247.890 43.682,235.236 38.123,223.456 42.074 C 221.692 42.665,221.538 42.686,221.342 42.348 C 215.297 31.936,200.495 29.568,191.953 37.647 L 190.835 38.705 189.395 37.177 C 184.411 31.884,176.329 29.245,169.700 30.742 M289.593 320.669 C 240.911 344.083,210.478 358.606,209.297 358.988 C 202.822 361.084,195.395 360.947,189.540 358.624 C 188.785 358.324,152.985 341.223,109.984 320.622 C 66.984 300.020,31.776 283.238,31.744 283.328 C 31.635 283.641,36.168 303.126,36.776 304.958 C 38.830 311.142,43.402 316.897,49.036 320.387 C 51.613 321.983,188.234 387.673,190.679 388.491 C 197.356 390.725,205.013 390.418,211.479 387.659 C 212.371 387.278,242.863 372.628,279.239 355.104 C 315.615 337.579,346.346 322.775,347.529 322.206 C 354.987 318.620,360.385 312.723,363.082 305.215 C 363.499 304.055,368.304 283.682,368.304 283.075 C 368.304 282.815,367.813 283.050,289.593 320.669 " stroke="none" fill="#5fbeef" fill-rule="evenodd"></path><path id="path1" d="M53.140 130.592 C 37.002 131.921,27.324 148.607,34.330 163.022 C 39.780 174.234,56.093 178.629,69.046 172.376 C 71.279 171.297,71.274 171.330,69.933 167.559 C 68.312 163.001,68.485 163.139,65.824 164.282 C 53.048 169.770,41.121 163.567,41.937 151.858 C 42.670 141.345,53.214 136.527,65.108 141.270 C 67.248 142.123,67.713 142.162,68.125 141.521 C 68.829 140.426,70.829 135.009,70.708 134.525 C 70.391 133.265,63.340 131.007,58.743 130.694 C 57.755 130.627,56.519 130.541,55.996 130.504 C 55.473 130.466,54.188 130.506,53.140 130.592 M81.606 131.474 C 81.103 131.977,81.255 174.048,81.761 174.319 C 82.402 174.662,109.266 174.618,109.737 174.273 C 110.061 174.036,110.093 173.582,110.042 169.994 L 109.984 165.980 100.317 165.925 L 90.650 165.870 90.650 161.970 L 90.650 158.070 99.225 158.010 C 109.540 157.938,108.399 158.488,108.399 153.590 C 108.399 148.903,109.490 149.392,99.055 149.392 L 90.650 149.392 90.650 144.638 L 90.650 139.884 100.116 139.884 C 107.197 139.884,109.647 139.820,109.836 139.630 C 110.193 139.273,110.193 131.831,109.836 131.474 C 109.470 131.107,81.972 131.107,81.606 131.474 M122.466 131.552 C 121.962 132.056,121.959 173.349,122.463 174.068 C 122.831 174.594,130.111 174.807,131.023 174.319 C 131.412 174.111,131.432 173.818,131.432 168.297 L 131.432 162.493 134.866 162.493 L 138.301 162.493 141.892 167.504 C 143.867 170.260,145.842 172.970,146.281 173.526 L 147.078 174.538 151.707 174.538 C 158.488 174.538,158.465 175.080,152.040 166.605 C 146.316 159.056,146.792 159.968,148.130 159.109 C 153.722 155.521,155.617 146.378,152.232 139.321 C 150.228 135.144,146.339 132.517,140.745 131.561 C 137.829 131.062,122.963 131.056,122.466 131.552 M160.845 131.474 C 160.520 131.799,160.490 138.876,160.810 139.475 C 161.020 139.866,161.321 139.884,167.678 139.884 L 174.326 139.884 174.326 156.741 C 174.326 171.656,174.364 173.653,174.655 174.068 C 174.976 174.526,175.087 174.538,179.081 174.538 C 183.074 174.538,183.186 174.526,183.506 174.068 C 183.797 173.653,183.835 171.656,183.835 156.741 L 183.835 139.884 190.378 139.884 C 198.181 139.884,197.359 140.394,197.359 135.552 C 197.359 133.534,197.266 131.864,197.140 131.629 C 196.869 131.123,161.348 130.971,160.845 131.474 M206.910 131.474 C 206.473 131.910,206.550 173.768,206.988 174.206 C 207.267 174.484,207.964 174.538,211.305 174.538 C 214.645 174.538,215.343 174.484,215.621 174.206 C 216.060 173.768,216.136 131.910,215.700 131.474 C 215.520 131.294,214.244 131.220,211.305 131.220 C 208.365 131.220,207.090 131.294,206.910 131.474 M228.251 131.474 C 227.748 131.977,227.900 174.048,228.407 174.319 C 229.319 174.807,236.598 174.594,236.966 174.068 C 237.249 173.664,237.295 172.539,237.295 166.039 L 237.295 158.479 245.513 158.479 C 255.725 158.479,254.656 159.001,254.576 154.047 L 254.517 150.355 253.988 150.088 C 253.590 149.887,251.466 149.821,245.378 149.818 L 237.295 149.815 237.295 144.849 L 237.295 139.884 246.778 139.884 C 258.135 139.884,256.841 140.441,256.841 135.552 C 256.841 132.783,256.772 131.836,256.551 131.570 C 256.175 131.117,228.701 131.024,228.251 131.474 M267.343 131.474 C 266.906 131.910,266.983 173.768,267.421 174.206 C 267.700 174.484,268.397 174.538,271.738 174.538 C 275.079 174.538,275.776 174.484,276.055 174.206 C 276.493 173.768,276.570 131.910,276.133 131.474 C 275.953 131.294,274.677 131.220,271.738 131.220 C 268.798 131.220,267.523 131.294,267.343 131.474 M288.685 131.474 C 288.181 131.977,288.334 174.048,288.840 174.319 C 289.536 174.692,316.349 174.615,316.864 174.238 C 317.345 173.887,317.608 167.559,317.187 166.452 L 316.968 165.874 307.348 165.874 L 297.728 165.874 297.728 161.972 L 297.728 158.070 306.303 158.010 C 316.618 157.938,315.478 158.488,315.478 153.590 C 315.478 148.903,316.569 149.392,306.134 149.392 L 297.728 149.392 297.728 144.638 L 297.728 139.884 307.225 139.884 L 316.722 139.884 317.051 139.414 C 317.315 139.036,317.380 138.281,317.380 135.552 C 317.380 132.824,317.315 132.068,317.051 131.690 L 316.722 131.220 302.830 131.220 C 292.307 131.220,288.877 131.282,288.685 131.474 M328.632 131.461 C 328.424 131.671,328.368 136.248,328.368 152.914 L 328.368 174.100 328.807 174.336 C 329.677 174.801,348.200 174.472,350.343 173.954 C 361.356 171.289,367.760 163.545,367.772 152.879 C 367.784 142.146,361.553 134.424,350.766 131.801 C 348.519 131.255,329.131 130.957,328.632 131.461 M138.646 140.189 C 142.302 140.964,143.954 142.996,143.981 146.751 C 144.018 151.963,141.735 153.820,135.077 153.994 L 131.432 154.089 131.432 146.986 L 131.432 139.884 134.337 139.887 C 136.015 139.890,137.835 140.017,138.646 140.189 M347.736 140.197 C 357.855 142.110,361.615 154.692,354.276 162.082 C 351.516 164.862,349.021 165.650,342.472 165.813 L 337.665 165.932 337.665 152.908 L 337.665 139.884 341.873 139.884 C 344.704 139.884,346.622 139.986,347.736 140.197 M200.740 206.371 C 196.661 206.986,194.843 208.743,194.339 212.558 L 194.119 214.229 193.362 214.365 C 192.945 214.439,192.248 214.593,191.812 214.707 L 191.020 214.913 191.020 216.573 C 191.020 218.486,191.023 218.489,192.939 218.489 L 194.189 218.489 194.189 226.282 C 194.189 235.450,193.875 234.585,197.178 234.503 L 199.577 234.443 199.633 226.473 L 199.688 218.503 201.957 218.443 L 204.226 218.384 204.226 216.270 L 204.226 214.157 201.955 214.097 C 199.409 214.030,199.290 213.922,199.967 212.302 C 200.437 211.178,200.825 210.998,203.027 210.882 L 205.038 210.777 205.659 208.909 C 206.394 206.703,206.419 206.744,204.126 206.457 C 202.343 206.234,201.744 206.219,200.740 206.371 M119.062 207.132 C 119.006 207.277,118.985 213.481,119.015 220.919 L 119.070 234.443 121.576 234.502 C 124.906 234.582,124.670 234.924,124.670 230.010 L 124.670 225.946 127.892 225.825 C 135.946 225.523,139.856 221.983,139.395 215.408 C 139.057 210.586,136.266 207.850,130.903 207.087 C 128.644 206.765,119.188 206.801,119.062 207.132 M143.736 207.115 C 143.328 207.523,143.361 233.979,143.770 234.318 C 143.965 234.480,144.876 234.542,146.464 234.503 L 148.864 234.443 148.864 220.708 L 148.864 206.973 146.430 206.914 C 144.716 206.872,143.919 206.932,143.736 207.115 M180.983 208.727 C 178.425 209.633,178.560 209.448,178.556 212.070 L 178.553 214.209 177.021 214.500 L 175.489 214.791 175.426 216.463 C 175.352 218.450,175.382 218.481,177.338 218.486 L 178.764 218.489 178.764 224.262 C 178.764 233.148,179.907 235.031,185.314 235.049 C 189.048 235.061,189.218 234.930,188.718 232.423 L 188.362 230.639 186.785 230.534 C 184.071 230.352,184.046 230.290,184.046 223.567 L 184.046 218.489 186.329 218.489 C 189.117 218.489,189.118 218.489,189.118 216.270 C 189.118 214.052,189.117 214.052,186.329 214.052 L 184.046 214.052 184.046 210.988 C 184.046 207.371,184.295 207.555,180.983 208.727 M131.365 212.242 C 133.060 213.031,133.653 214.075,133.641 216.255 C 133.623 219.828,132.037 221.012,127.258 221.020 L 124.459 221.025 124.459 216.376 L 124.459 211.727 127.364 211.729 C 129.990 211.731,130.375 211.781,131.365 212.242 M161.226 213.405 C 158.936 213.721,155.098 215.184,155.098 215.742 C 155.098 215.854,155.454 216.668,155.890 217.551 C 156.794 219.380,156.637 219.340,159.218 218.403 C 162.938 217.053,166.118 217.910,166.445 220.352 L 166.555 221.174 164.035 221.321 C 156.230 221.777,152.997 224.555,153.999 229.942 C 154.894 234.753,161.312 236.807,165.745 233.702 C 166.935 232.868,167.142 232.899,167.142 233.909 C 167.142 234.120,167.293 234.350,167.476 234.420 C 167.958 234.605,171.961 234.578,172.060 234.390 C 172.407 233.726,171.806 219.544,171.373 218.188 C 170.226 214.596,166.234 212.715,161.226 213.405 M215.320 213.420 C 208.293 214.539,204.695 222.079,207.760 229.266 C 210.943 236.733,223.049 237.094,226.625 229.827 C 230.985 220.969,224.749 211.920,215.320 213.420 M242.578 213.342 C 241.166 213.606,239.888 214.185,239.088 214.923 C 238.142 215.795,237.929 215.789,237.929 214.888 C 237.929 213.950,237.556 213.820,235.064 213.886 L 232.788 213.946 232.839 223.981 C 232.873 230.737,232.964 234.104,233.116 234.288 C 233.283 234.489,233.989 234.546,235.795 234.502 L 238.246 234.443 238.352 228.209 C 238.471 221.182,238.556 220.760,240.136 219.373 C 241.202 218.437,241.693 218.278,243.514 218.278 L 245.056 218.278 245.206 216.033 C 245.289 214.798,245.274 213.705,245.174 213.605 C 244.946 213.377,243.287 213.209,242.578 213.342 M258.398 213.422 C 257.218 213.621,255.628 214.302,254.713 215.000 C 253.985 215.555,253.777 215.507,253.777 214.782 C 253.777 213.958,253.341 213.822,250.912 213.886 L 248.636 213.946 248.687 223.981 C 248.721 230.737,248.812 234.104,248.964 234.288 C 249.131 234.489,249.837 234.546,251.642 234.502 L 254.094 234.443 254.200 227.787 L 254.305 221.130 254.928 220.006 C 256.489 217.189,260.108 216.980,261.548 219.624 C 261.861 220.198,261.923 221.224,262.016 227.364 L 262.124 234.443 264.659 234.443 L 267.195 234.443 267.304 227.998 C 267.451 219.346,268.094 217.854,271.675 217.856 C 274.777 217.858,274.986 218.434,275.119 227.364 L 275.225 234.443 277.624 234.503 C 280.901 234.585,280.614 235.229,280.609 227.814 C 280.603 219.291,280.267 217.469,278.330 215.460 C 275.600 212.627,270.206 212.567,267.202 215.336 L 266.246 216.217 265.411 215.357 C 263.762 213.659,261.193 212.949,258.398 213.422 M219.500 218.183 C 223.468 219.841,223.463 228.549,219.492 230.209 C 215.797 231.752,212.670 229.381,212.412 224.838 C 212.104 219.436,215.305 216.431,219.500 218.183 M166.467 226.520 C 166.161 230.760,159.535 232.405,159.535 228.242 C 159.535 226.159,161.004 225.292,164.579 225.266 L 166.559 225.251 166.467 226.520 M230.005 248.057 C 228.041 248.531,227.168 250.615,228.107 252.592 C 229.162 254.816,233.033 254.577,234.006 252.228 C 235.089 249.615,232.919 247.353,230.005 248.057 M97.000 250.164 C 96.394 251.296,86.642 276.945,86.730 277.174 C 86.844 277.472,91.826 277.568,92.256 277.281 C 92.384 277.196,92.944 275.912,93.500 274.429 L 94.511 271.731 99.815 271.787 L 105.118 271.844 106.057 274.485 C 106.573 275.938,107.097 277.196,107.222 277.281 C 107.543 277.501,112.459 277.475,112.812 277.252 C 113.082 277.081,103.286 250.877,102.634 250.026 C 102.263 249.544,97.267 249.666,97.000 250.164 M178.024 250.004 C 177.964 250.162,177.939 256.376,177.970 263.814 L 178.024 277.338 184.469 277.327 C 191.603 277.315,192.466 277.197,194.892 275.908 C 199.744 273.330,199.524 264.733,194.568 263.248 C 193.581 262.952,193.585 262.910,194.658 262.124 C 199.209 258.793,197.893 252.180,192.319 250.365 C 190.532 249.783,178.228 249.472,178.024 250.004 M240.091 250.010 C 239.683 250.418,239.716 276.874,240.125 277.213 C 240.320 277.375,241.231 277.437,242.819 277.398 L 245.219 277.338 245.219 263.603 L 245.219 249.868 242.785 249.809 C 241.071 249.767,240.274 249.827,240.091 250.010 M265.240 249.902 C 265.043 249.982,264.976 250.978,264.976 253.864 L 264.976 257.720 263.761 257.118 C 254.866 252.714,246.867 263.591,251.616 273.635 C 253.750 278.150,260.806 279.530,264.623 276.179 L 265.388 275.507 265.527 276.372 C 265.695 277.427,265.860 277.483,268.545 277.400 L 270.530 277.338 270.486 263.712 C 270.454 253.481,270.380 250.048,270.192 249.928 C 269.917 249.753,265.665 249.731,265.240 249.902 M190.088 254.843 C 191.263 255.412,191.736 256.375,191.606 257.935 C 191.406 260.353,190.343 260.961,186.321 260.961 L 183.413 260.961 183.413 257.686 L 183.413 254.411 186.304 254.411 C 188.785 254.411,189.323 254.472,190.088 254.843 M126.466 256.249 C 125.082 256.432,123.660 256.966,122.659 257.678 C 121.387 258.583,121.289 258.593,121.289 257.818 C 121.289 256.843,120.934 256.714,118.434 256.781 L 116.167 256.841 116.204 271.519 C 116.230 281.770,116.311 286.281,116.472 286.475 C 116.644 286.683,117.326 286.738,119.154 286.694 L 121.606 286.635 121.663 281.616 C 121.694 278.856,121.754 276.598,121.796 276.598 C 121.837 276.598,122.383 276.831,123.007 277.116 C 125.264 278.145,127.900 278.251,130.356 277.411 C 138.958 274.470,138.380 258.275,129.607 256.416 C 128.170 256.112,127.692 256.086,126.466 256.249 M151.611 256.249 C 150.227 256.432,148.806 256.966,147.804 257.678 C 146.532 258.583,146.434 258.593,146.434 257.818 C 146.434 256.843,146.079 256.714,143.579 256.781 L 141.313 256.841 141.350 271.519 C 141.375 281.770,141.456 286.281,141.617 286.475 C 141.789 286.683,142.471 286.738,144.300 286.694 L 146.751 286.635 146.808 281.616 C 146.839 278.856,146.899 276.598,146.941 276.598 C 146.983 276.598,147.528 276.831,148.152 277.116 C 150.409 278.145,153.045 278.251,155.502 277.411 C 164.110 274.468,163.531 258.276,154.752 256.416 C 153.315 256.112,152.838 256.086,151.611 256.249 M283.521 256.320 C 278.245 257.208,275.427 261.015,275.472 267.195 C 275.533 275.541,282.468 280.156,290.503 277.196 C 294.012 275.904,294.385 275.311,292.956 273.308 C 291.829 271.730,291.878 271.741,289.987 272.634 C 286.493 274.284,282.640 273.453,281.429 270.789 C 280.657 269.090,280.213 269.202,287.684 269.202 C 295.562 269.202,294.901 269.490,294.704 266.150 C 294.288 259.106,289.898 255.246,283.521 256.320 M309.350 256.237 C 307.939 256.501,306.660 257.080,305.860 257.818 C 304.914 258.690,304.702 258.683,304.702 257.783 C 304.702 256.845,304.328 256.715,301.836 256.781 L 299.560 256.841 299.611 266.876 C 299.646 273.632,299.736 276.999,299.889 277.183 C 300.056 277.384,300.761 277.440,302.567 277.397 L 305.018 277.338 305.124 271.104 C 305.243 264.077,305.328 263.655,306.908 262.268 C 307.975 261.332,308.466 261.173,310.286 261.173 L 311.828 261.173 311.979 258.928 C 312.061 257.693,312.047 256.600,311.946 256.500 C 311.718 256.272,310.060 256.104,309.350 256.237 M101.721 261.867 L 103.516 267.089 99.841 267.089 L 96.167 267.089 97.620 262.810 C 99.618 256.926,99.773 256.491,99.855 256.573 C 99.894 256.612,100.734 258.994,101.721 261.867 M203.112 256.983 C 202.783 257.312,202.749 269.261,203.071 271.315 C 204.018 277.347,211.253 280.189,215.984 276.388 C 216.957 275.606,217.010 275.604,217.010 276.361 C 217.010 277.336,217.365 277.464,219.875 277.398 L 222.151 277.338 222.100 267.303 C 222.067 260.699,221.974 257.177,221.828 257.002 C 221.583 256.706,217.309 256.619,216.866 256.901 C 216.685 257.016,216.597 258.838,216.549 263.501 C 216.460 271.997,215.804 273.430,212.000 273.428 C 208.799 273.426,208.483 272.584,208.347 263.708 L 208.241 256.841 205.807 256.782 C 204.093 256.740,203.295 256.800,203.112 256.983 M228.469 256.983 C 228.063 257.389,228.096 276.875,228.504 277.213 C 228.698 277.375,229.609 277.437,231.198 277.398 L 233.597 277.338 233.597 267.089 L 233.597 256.841 231.163 256.782 C 229.450 256.740,228.652 256.800,228.469 256.983 M287.313 260.954 C 288.211 261.502,289.073 262.838,289.217 263.905 L 289.332 264.765 285.074 264.765 L 280.816 264.765 280.950 264.184 C 281.640 261.188,284.946 259.510,287.313 260.954 M128.850 261.351 C 131.266 263.072,131.617 268.973,129.484 272.007 C 128.360 273.605,125.099 273.937,122.802 272.687 L 121.680 272.076 121.749 268.156 C 121.832 263.374,122.255 262.310,124.564 261.070 C 125.532 260.551,127.948 260.709,128.850 261.351 M153.995 261.351 C 156.411 263.072,156.762 268.973,154.629 272.007 C 153.505 273.605,150.244 273.937,147.948 272.687 L 146.825 272.076 146.894 268.156 C 146.978 263.374,147.401 262.310,149.709 261.070 C 150.677 260.551,153.093 260.709,153.995 261.351 M262.806 261.074 C 263.232 261.252,263.894 261.637,264.278 261.930 L 264.976 262.462 264.972 266.096 C 264.965 271.629,263.824 273.428,260.325 273.428 C 257.319 273.428,255.998 271.524,255.996 267.190 C 255.995 262.020,258.876 259.432,262.806 261.074 M190.719 265.800 C 193.656 267.134,193.215 271.684,190.064 272.559 C 189.602 272.687,187.916 272.793,186.318 272.793 L 183.413 272.795 183.413 269.097 L 183.413 265.399 186.635 265.403 C 189.314 265.407,190.003 265.474,190.719 265.800 " stroke="none" fill="#fafafb" fill-rule="evenodd"></path><path id="path2" d="M119.915 2.447 C 113.814 3.516,108.241 6.429,104.001 10.766 C 101.405 13.422,7.941 130.594,6.159 133.426 C 2.908 138.595,1.303 145.387,1.891 151.487 C 2.072 153.358,3.332 159.239,6.949 175.088 C 9.598 186.698,16.226 215.741,21.678 239.629 L 31.590 283.061 32.646 283.497 C 33.228 283.736,68.362 300.548,110.724 320.856 C 153.085 341.164,188.449 358.061,189.311 358.405 C 195.579 360.906,203.080 361.015,209.809 358.701 C 210.671 358.405,246.712 341.180,289.901 320.423 L 368.426 282.684 383.063 218.521 C 399.416 146.832,398.189 152.621,398.034 147.913 C 397.840 141.976,396.277 137.016,393.189 132.533 C 391.192 129.635,297.290 12.043,295.771 10.539 C 291.365 6.177,285.378 3.204,279.239 2.332 C 276.676 1.967,122.016 2.079,119.915 2.447 M178.966 30.850 C 182.619 31.744,186.231 33.836,189.091 36.713 L 190.860 38.492 191.627 37.772 C 200.062 29.841,213.778 31.368,220.559 40.993 C 221.091 41.749,221.557 42.407,221.594 42.456 C 221.631 42.505,222.397 42.291,223.297 41.982 C 233.577 38.447,245.131 42.344,250.901 51.293 C 262.209 68.832,248.103 91.018,227.439 88.192 C 226.566 88.073,226.560 88.077,225.720 89.314 C 221.438 95.619,213.020 98.429,205.845 95.949 C 204.759 95.573,203.856 95.297,203.837 95.335 C 196.185 110.983,175.053 111.113,167.687 95.556 C 167.114 94.346,167.030 94.263,166.525 94.405 C 162.806 95.446,156.136 93.760,152.245 90.796 C 142.212 83.152,143.047 66.252,153.754 60.260 C 154.086 60.074,154.072 59.934,153.564 58.397 C 148.303 42.474,162.695 26.867,178.966 30.850 M61.545 130.900 C 65.376 131.595,70.305 133.453,70.867 134.414 C 71.080 134.780,68.704 141.111,68.080 141.838 C 67.644 142.347,67.410 142.315,65.256 141.454 C 53.097 136.589,42.609 141.392,42.104 152.056 C 41.519 164.428,52.770 169.540,67.354 163.529 C 68.359 163.115,68.636 163.518,70.031 167.430 C 71.569 171.741,71.234 172.204,65.293 173.980 C 47.336 179.350,31.295 168.753,31.958 151.958 C 32.525 137.598,45.918 128.066,61.545 130.900 M109.831 131.338 C 110.288 131.658,110.301 131.777,110.301 135.552 C 110.301 140.661,111.584 140.095,100.006 140.095 L 90.650 140.095 90.650 144.744 L 90.650 149.392 99.271 149.392 C 105.695 149.392,107.957 149.457,108.146 149.646 C 108.631 150.132,108.490 157.570,107.991 157.837 C 107.728 157.978,104.548 158.056,99.116 158.056 L 90.650 158.056 90.650 161.859 L 90.650 165.663 100.089 165.663 C 108.576 165.663,109.567 165.698,109.915 166.013 C 110.363 166.418,110.506 173.338,110.082 174.129 C 109.775 174.703,82.045 174.778,81.473 174.206 C 80.888 173.621,80.976 132.019,81.564 131.432 C 82.147 130.849,109.006 130.760,109.831 131.338 M139.233 131.229 C 145.397 131.861,150.254 134.824,152.383 139.250 C 155.660 146.065,153.993 154.911,148.693 158.832 C 147.974 159.364,147.395 159.913,147.408 160.052 C 147.421 160.191,149.632 163.219,152.321 166.781 C 157.583 173.752,157.386 173.432,156.841 174.098 C 156.480 174.539,156.356 174.548,151.611 174.491 L 146.751 174.432 142.482 168.516 C 138.476 162.964,138.173 162.600,137.569 162.611 C 137.215 162.617,135.737 162.641,134.284 162.664 L 131.643 162.705 131.643 168.213 C 131.643 171.605,131.559 173.877,131.424 174.129 C 131.156 174.630,122.875 174.772,122.388 174.284 C 122.194 174.090,122.134 169.042,122.134 152.849 L 122.134 131.667 122.604 131.338 C 123.174 130.939,135.612 130.857,139.233 131.229 M196.972 131.359 C 197.529 131.863,197.561 139.098,197.009 139.709 C 196.685 140.067,196.191 140.095,190.247 140.095 L 183.835 140.095 183.835 157.063 C 183.835 169.978,183.775 174.091,183.582 174.284 C 183.223 174.643,174.938 174.643,174.580 174.284 C 174.387 174.091,174.326 169.978,174.326 157.063 L 174.326 140.095 167.816 140.095 C 159.642 140.095,160.486 140.618,160.486 135.552 C 160.486 131.893,160.516 131.587,160.896 131.309 C 161.569 130.817,196.427 130.865,196.972 131.359 M215.649 131.309 C 216.220 131.727,216.412 173.179,215.846 174.042 C 215.336 174.821,207.274 174.821,206.764 174.042 C 206.198 173.179,206.389 131.727,206.961 131.309 C 207.280 131.075,208.241 131.009,211.305 131.009 C 214.369 131.009,215.330 131.075,215.649 131.309 M256.477 131.338 C 256.933 131.658,256.947 131.777,256.947 135.552 C 256.947 140.661,258.229 140.095,246.651 140.095 L 237.295 140.095 237.295 144.955 L 237.295 149.815 245.705 149.815 C 251.965 149.815,254.180 149.880,254.369 150.069 C 254.547 150.247,254.622 151.454,254.622 154.147 C 254.622 156.840,254.547 158.047,254.369 158.225 C 254.180 158.414,251.965 158.479,245.705 158.479 L 237.295 158.479 237.295 166.255 C 237.295 172.021,237.230 174.096,237.042 174.284 C 236.606 174.720,228.665 174.634,228.173 174.188 C 227.540 173.615,227.575 132.066,228.209 131.432 C 228.792 130.849,255.651 130.760,256.477 131.338 M276.082 131.309 C 276.654 131.727,276.845 173.179,276.279 174.042 C 275.769 174.821,267.707 174.821,267.197 174.042 C 266.631 173.179,266.822 131.727,267.394 131.309 C 267.713 131.075,268.674 131.009,271.738 131.009 C 274.802 131.009,275.763 131.075,276.082 131.309 M316.910 131.338 C 317.367 131.658,317.380 131.777,317.380 135.552 C 317.380 140.661,318.663 140.095,307.085 140.095 L 297.728 140.095 297.728 144.744 L 297.728 149.392 306.350 149.392 C 312.773 149.392,315.036 149.457,315.225 149.646 C 315.710 150.132,315.569 157.570,315.069 157.837 C 314.807 157.978,311.626 158.056,306.195 158.056 L 297.728 158.056 297.728 161.859 L 297.728 165.663 307.168 165.663 C 315.655 165.663,316.646 165.698,316.993 166.013 C 317.472 166.446,317.591 173.820,317.126 174.284 C 316.677 174.734,289.107 174.641,288.606 174.188 C 287.973 173.615,288.008 132.066,288.642 131.432 C 289.225 130.849,316.084 130.760,316.910 131.338 M347.580 131.229 C 373.486 133.887,375.423 168.918,349.951 174.109 C 346.779 174.755,328.719 174.772,328.375 174.129 C 328.229 173.855,328.156 166.784,328.156 152.694 L 328.156 131.667 328.626 131.338 C 329.195 130.939,343.930 130.854,347.580 131.229 M131.643 146.942 L 131.643 153.830 134.896 153.830 C 141.490 153.830,143.790 152.027,143.792 146.857 C 143.794 141.852,141.821 140.294,135.288 140.140 L 131.643 140.053 131.643 146.942 M337.665 152.879 L 337.665 165.663 342.050 165.659 C 347.198 165.655,348.602 165.426,351.128 164.181 C 358.717 160.440,360.340 149.868,354.259 143.786 C 351.259 140.786,349.016 140.095,342.280 140.095 L 337.665 140.095 337.665 152.879 M205.758 206.560 C 206.388 206.753,206.361 207.388,205.638 209.403 L 205.069 210.988 203.650 210.917 C 201.177 210.793,199.894 211.582,199.894 213.228 L 199.894 214.037 202.166 214.097 L 204.437 214.157 204.437 216.270 L 204.437 218.384 202.168 218.443 L 199.899 218.503 199.844 226.473 L 199.789 234.443 197.042 234.443 L 194.295 234.443 194.239 226.466 L 194.184 218.489 192.602 218.489 L 191.020 218.489 191.020 216.701 C 191.020 214.680,191.063 214.620,192.728 214.371 C 194.073 214.169,194.115 214.119,194.237 212.560 C 194.480 209.448,196.156 207.376,199.098 206.547 C 200.230 206.229,204.701 206.237,205.758 206.560 M132.543 207.277 C 137.119 208.447,139.261 211.059,139.423 215.665 C 139.664 222.529,135.822 225.873,127.685 225.882 L 124.679 225.885 124.621 230.164 L 124.564 234.443 121.712 234.443 L 118.859 234.443 118.804 220.919 C 118.774 213.481,118.795 207.277,118.850 207.132 C 119.036 206.646,130.553 206.768,132.543 207.277 M149.076 220.708 L 149.076 234.443 146.329 234.443 L 143.582 234.443 143.527 220.919 C 143.497 213.481,143.519 207.274,143.575 207.125 C 143.654 206.921,144.336 206.869,146.377 206.914 L 149.076 206.973 149.076 220.708 M184.211 210.928 L 184.269 214.038 186.641 214.098 L 189.012 214.157 189.012 216.270 L 189.012 218.384 186.635 218.443 L 184.258 218.503 184.258 223.873 L 184.258 229.242 184.768 229.835 C 185.241 230.384,185.392 230.428,186.828 230.428 L 188.378 230.428 188.641 231.484 C 189.465 234.806,189.344 234.984,186.148 235.138 C 182.625 235.307,180.526 234.320,179.294 231.914 L 178.658 230.671 178.591 224.580 L 178.524 218.489 176.953 218.489 L 175.383 218.489 175.383 216.602 C 175.383 214.519,175.306 214.628,176.968 214.362 C 178.655 214.091,178.553 214.254,178.553 211.831 C 178.553 209.299,178.336 209.571,181.194 208.522 C 184.324 207.373,184.141 207.227,184.211 210.928 M124.670 216.376 L 124.670 221.025 126.956 221.025 C 131.607 221.025,133.552 219.639,133.540 216.330 C 133.528 212.956,131.799 211.727,127.061 211.727 L 124.670 211.727 124.670 216.376 M166.310 213.541 C 170.991 214.606,171.785 216.379,172.028 226.307 C 172.123 230.201,172.228 233.624,172.260 233.914 L 172.319 234.443 169.892 234.503 C 167.240 234.569,166.931 234.443,166.931 233.304 L 166.931 232.775 166.244 233.440 C 163.878 235.729,158.740 235.792,155.819 233.568 C 153.840 232.061,153.180 227.567,154.569 225.056 C 155.960 222.544,159.304 221.252,164.448 221.240 L 166.297 221.236 166.297 220.407 C 166.297 217.867,162.609 217.109,158.428 218.789 C 156.734 219.470,156.764 219.484,155.832 217.634 C 154.812 215.608,154.841 215.463,156.418 214.715 C 159.500 213.252,163.142 212.820,166.310 213.541 M220.371 213.532 C 230.881 216.009,230.599 232.741,220.011 234.949 C 211.528 236.718,205.047 229.921,206.893 221.194 C 208.140 215.299,213.923 212.012,220.371 213.532 M244.991 213.335 C 245.401 213.492,245.493 217.937,245.091 218.186 C 244.963 218.266,244.178 218.346,243.348 218.366 C 241.707 218.404,240.780 218.767,239.880 219.725 C 238.728 220.949,238.677 221.277,238.563 228.104 L 238.457 234.443 235.711 234.443 L 232.964 234.443 232.820 224.723 C 232.742 219.377,232.647 214.765,232.609 214.474 L 232.541 213.946 235.175 213.946 L 237.810 213.946 238.035 214.748 L 238.260 215.550 238.781 214.992 C 240.024 213.662,243.456 212.746,244.991 213.335 M263.391 213.817 C 263.973 214.073,264.842 214.669,265.323 215.140 L 266.198 215.996 267.358 215.051 C 270.638 212.379,275.944 212.616,278.584 215.552 C 280.461 217.639,280.505 217.900,280.506 226.730 L 280.507 234.443 277.760 234.443 L 275.013 234.443 274.908 227.258 C 274.774 218.184,274.457 217.431,270.987 217.952 C 268.118 218.382,267.643 219.738,267.512 227.892 L 267.406 234.443 264.659 234.443 L 261.912 234.443 261.807 227.258 C 261.705 220.323,261.685 220.048,261.238 219.334 C 259.823 217.077,256.362 217.468,254.986 220.041 C 254.536 220.882,254.512 221.204,254.411 227.681 L 254.305 234.443 251.558 234.443 L 248.811 234.443 248.668 224.723 C 248.589 219.377,248.494 214.765,248.457 214.474 L 248.389 213.946 251.022 213.946 L 253.656 213.946 253.850 214.624 L 254.044 215.301 255.001 214.643 C 257.194 213.135,260.999 212.760,263.391 213.817 M215.491 218.176 C 211.716 219.388,211.370 228.213,215.027 230.018 C 218.674 231.819,221.981 229.418,222.246 224.779 C 222.539 219.637,219.672 216.834,215.491 218.176 M163.127 225.390 C 160.636 225.776,159.665 226.569,159.665 228.218 C 159.665 232.224,166.000 230.686,166.259 226.617 L 166.346 225.251 165.001 225.280 C 164.261 225.296,163.418 225.345,163.127 225.390 M232.858 248.231 C 234.836 249.219,234.828 252.750,232.845 253.814 C 230.421 255.114,227.688 253.638,227.688 251.030 C 227.688 248.425,230.356 246.981,232.858 248.231 M107.915 263.180 C 110.731 270.502,113.037 276.706,113.041 276.968 C 113.048 277.438,113.018 277.443,110.116 277.443 C 106.670 277.443,107.052 277.724,105.864 274.323 L 104.958 271.731 99.781 271.787 L 94.604 271.844 93.631 274.385 C 93.095 275.782,92.580 277.042,92.486 277.185 C 92.241 277.555,86.720 277.550,86.581 277.179 C 86.511 276.992,94.657 255.490,96.871 250.020 C 96.954 249.815,97.681 249.764,99.889 249.809 L 102.797 249.868 107.915 263.180 M192.816 250.363 C 198.016 252.286,199.157 259.065,194.811 262.214 L 193.955 262.833 194.896 263.250 C 200.015 265.514,199.753 273.789,194.484 276.282 C 192.305 277.313,190.979 277.455,184.098 277.394 L 177.813 277.338 177.758 263.814 C 177.728 256.376,177.752 250.165,177.810 250.011 C 178.018 249.468,191.235 249.778,192.816 250.363 M245.431 263.603 L 245.431 277.338 242.684 277.338 L 239.937 277.338 239.882 263.814 C 239.852 256.376,239.874 250.169,239.930 250.020 C 240.009 249.815,240.691 249.764,242.732 249.809 L 245.431 249.868 245.431 263.603 M270.545 262.916 C 270.605 270.151,270.685 276.355,270.721 276.704 L 270.787 277.338 268.360 277.398 C 265.719 277.463,265.399 277.336,265.399 276.223 L 265.399 275.717 264.606 276.340 C 261.412 278.850,255.861 278.662,253.151 275.952 C 249.172 271.973,249.157 263.026,253.123 258.890 C 255.959 255.932,260.976 255.170,264.289 257.195 L 264.976 257.615 264.976 253.689 L 264.976 249.762 267.705 249.762 L 270.434 249.762 270.545 262.916 M183.413 257.682 L 183.413 261.002 186.318 260.929 C 190.396 260.826,191.513 260.118,191.513 257.635 C 191.513 255.165,190.552 254.575,186.318 254.450 L 183.413 254.363 183.413 257.682 M131.516 256.921 C 138.696 260.455,138.101 274.596,130.653 277.451 C 128.349 278.334,124.945 278.226,122.935 277.207 C 122.504 276.988,122.101 276.809,122.041 276.809 C 121.980 276.809,121.905 279.020,121.874 281.722 L 121.817 286.635 119.070 286.635 L 116.323 286.635 116.187 272.266 C 116.112 264.363,116.017 257.660,115.975 257.369 L 115.901 256.841 118.535 256.841 L 121.170 256.841 121.398 257.654 C 121.602 258.381,121.656 258.430,121.916 258.117 C 123.583 256.108,128.597 255.483,131.516 256.921 M156.662 256.921 C 163.841 260.455,163.246 274.596,155.799 277.451 C 153.495 278.334,150.090 278.226,148.080 277.207 C 147.649 276.988,147.247 276.809,147.186 276.809 C 147.126 276.809,147.050 279.020,147.019 281.722 L 146.962 286.635 144.216 286.635 L 141.469 286.635 141.332 272.266 C 141.257 264.363,141.162 257.660,141.121 257.369 L 141.046 256.841 143.680 256.841 L 146.315 256.841 146.543 257.654 C 146.747 258.381,146.802 258.430,147.061 258.117 C 148.729 256.108,153.742 255.483,156.662 256.921 M288.076 256.417 C 292.500 257.570,294.881 261.339,294.725 266.942 L 294.665 269.097 287.850 269.152 C 284.102 269.183,281.035 269.242,281.035 269.284 C 281.035 272.934,286.105 274.516,290.562 272.257 C 291.910 271.574,291.908 271.574,293.170 273.425 C 294.381 275.200,294.363 275.296,292.639 276.341 C 286.956 279.785,278.887 277.990,276.494 272.748 C 272.249 263.455,278.930 254.035,288.076 256.417 M311.763 256.230 C 312.174 256.387,312.266 260.832,311.863 261.081 C 311.735 261.160,310.950 261.241,310.120 261.261 C 308.479 261.299,307.552 261.662,306.652 262.619 C 305.501 263.844,305.449 264.172,305.335 270.998 L 305.230 277.338 302.483 277.338 L 299.736 277.338 299.593 267.618 C 299.514 262.272,299.419 257.660,299.381 257.369 L 299.313 256.841 301.948 256.841 L 304.582 256.841 304.807 257.643 L 305.032 258.445 305.554 257.887 C 306.796 256.557,310.229 255.641,311.763 256.230 M98.156 261.646 C 97.243 264.349,96.453 266.680,96.402 266.825 C 96.331 267.030,97.106 267.089,99.833 267.089 C 103.093 267.089,103.348 267.062,103.238 266.719 C 103.173 266.516,102.376 264.186,101.468 261.540 L 99.817 256.731 98.156 261.646 M208.558 263.814 C 208.646 269.648,208.720 270.911,209.008 271.544 C 210.291 274.365,214.423 273.915,215.876 270.796 C 216.361 269.755,216.372 269.589,216.374 263.567 C 216.377 255.942,216.032 256.735,219.339 256.735 L 222.045 256.735 222.156 266.403 C 222.217 271.719,222.297 276.355,222.333 276.704 L 222.398 277.338 219.765 277.338 L 217.132 277.338 216.939 276.665 L 216.746 275.993 215.700 276.713 C 212.524 278.898,207.132 278.415,204.885 275.744 C 203.035 273.545,202.858 272.519,202.855 263.966 L 202.853 256.723 205.652 256.782 L 208.452 256.841 208.558 263.814 M233.809 267.089 L 233.809 277.338 231.062 277.338 L 228.315 277.338 228.260 267.301 C 228.230 261.780,228.251 257.142,228.308 256.993 C 228.387 256.788,229.069 256.737,231.110 256.782 L 233.809 256.841 233.809 267.089 M283.716 260.845 C 282.621 261.235,282.122 261.722,281.536 262.969 C 280.649 264.857,280.462 264.765,285.173 264.765 L 289.310 264.765 289.162 264.078 C 288.553 261.259,286.302 259.922,283.716 260.845 M125.068 261.042 C 122.468 261.971,121.923 263.222,121.923 268.259 L 121.923 272.092 123.063 272.650 C 127.762 274.951,131.189 271.983,130.728 266.010 C 130.417 261.970,128.118 259.952,125.068 261.042 M150.213 261.042 C 147.614 261.971,147.068 263.222,147.068 268.259 L 147.068 272.092 148.208 272.650 C 152.908 274.951,156.334 271.983,155.873 266.010 C 155.562 261.970,153.263 259.952,150.213 261.042 M259.114 260.986 C 255.000 262.174,254.966 272.043,259.072 273.221 C 262.850 274.304,264.807 271.970,264.938 266.224 L 265.018 262.717 264.205 262.044 C 262.860 260.933,260.789 260.502,259.114 260.986 M183.413 269.097 L 183.413 272.841 186.536 272.764 C 191.169 272.651,192.499 271.806,192.499 268.973 C 192.499 266.302,191.247 265.547,186.635 265.433 L 183.413 265.354 183.413 269.097 " stroke="none" fill="#2c0c8c" fill-rule="evenodd"></path><path id="path3" d="M172.802 30.373 C 173.416 30.415,174.366 30.415,174.915 30.372 C 175.463 30.328,174.960 30.293,173.798 30.294 C 172.636 30.294,172.188 30.330,172.802 30.373 M188.801 36.556 C 189.491 37.253,190.103 37.824,190.161 37.824 C 190.219 37.824,189.702 37.253,189.012 36.556 C 188.322 35.858,187.710 35.288,187.652 35.288 C 187.594 35.288,188.111 35.858,188.801 36.556 M158.576 36.609 L 157.528 37.718 158.637 36.669 C 159.668 35.695,159.843 35.499,159.686 35.499 C 159.652 35.499,159.153 35.998,158.576 36.609 M191.649 37.723 C 191.200 38.185,190.805 38.421,190.604 38.344 C 190.342 38.245,190.331 38.273,190.548 38.491 C 190.765 38.709,190.985 38.591,191.707 37.870 C 192.197 37.379,192.547 36.978,192.484 36.978 C 192.422 36.978,192.046 37.313,191.649 37.723 M230.481 40.723 C 230.858 40.770,231.476 40.770,231.854 40.723 C 232.232 40.677,231.923 40.638,231.167 40.638 C 230.412 40.638,230.103 40.677,230.481 40.723 M221.232 42.208 C 221.359 42.470,221.625 42.676,221.825 42.667 C 222.118 42.653,222.127 42.627,221.870 42.527 C 221.696 42.459,221.429 42.253,221.277 42.068 C 221.043 41.784,221.036 41.805,221.232 42.208 M254.676 62.441 C 254.678 62.905,254.721 63.071,254.772 62.808 C 254.822 62.545,254.820 62.165,254.767 61.963 C 254.715 61.761,254.673 61.976,254.676 62.441 M150.449 62.863 C 149.936 63.386,149.563 63.814,149.621 63.814 C 149.680 63.814,150.147 63.386,150.660 62.863 C 151.174 62.340,151.546 61.912,151.488 61.912 C 151.430 61.912,150.962 62.340,150.449 62.863 M254.676 66.667 C 254.678 67.132,254.721 67.297,254.772 67.034 C 254.822 66.771,254.820 66.391,254.767 66.189 C 254.715 65.987,254.673 66.202,254.676 66.667 M145.004 76.070 C 145.004 76.476,145.048 76.643,145.101 76.440 C 145.154 76.236,145.154 75.903,145.101 75.700 C 145.048 75.497,145.004 75.663,145.004 76.070 M150.440 89.223 C 150.958 89.775,151.410 90.227,151.444 90.227 C 151.603 90.227,151.435 90.037,150.502 89.162 L 149.498 88.220 150.440 89.223 M230.375 88.479 C 230.811 88.525,231.524 88.525,231.960 88.479 C 232.396 88.434,232.039 88.396,231.167 88.396 C 230.296 88.396,229.939 88.434,230.375 88.479 M162.657 94.608 C 163.154 94.653,163.915 94.652,164.348 94.607 C 164.781 94.561,164.374 94.525,163.444 94.526 C 162.515 94.526,162.160 94.564,162.657 94.608 M199.572 101.268 L 198.098 102.800 199.630 101.326 C 200.473 100.516,201.162 99.827,201.162 99.794 C 201.162 99.639,200.940 99.845,199.572 101.268 M171.157 100.859 C 171.157 100.895,171.466 101.204,171.844 101.545 L 172.530 102.166 171.910 101.479 C 171.331 100.839,171.157 100.695,171.157 100.859 M176.228 104.700 C 176.228 104.844,177.522 105.486,177.619 105.389 C 177.665 105.343,177.370 105.147,176.965 104.954 C 176.560 104.761,176.228 104.646,176.228 104.700 M183.782 107.069 C 184.044 107.120,184.472 107.120,184.733 107.069 C 184.995 107.019,184.781 106.978,184.258 106.978 C 183.735 106.978,183.521 107.019,183.782 107.069 M186.743 107.070 C 187.006 107.120,187.386 107.118,187.588 107.065 C 187.790 107.013,187.575 106.971,187.110 106.974 C 186.646 106.976,186.480 107.019,186.743 107.070 M88.801 131.167 C 92.607 131.200,98.835 131.200,102.641 131.167 C 106.447 131.135,103.333 131.109,95.721 131.109 C 88.109 131.109,84.995 131.135,88.801 131.167 M126.744 131.167 C 128.872 131.202,132.295 131.202,134.351 131.167 C 136.406 131.133,134.665 131.104,130.481 131.104 C 126.297 131.104,124.615 131.133,126.744 131.167 M170.048 131.167 C 174.958 131.199,182.993 131.199,187.903 131.167 C 192.813 131.136,188.796 131.110,178.975 131.110 C 169.155 131.110,165.137 131.136,170.048 131.167 M209.245 131.167 C 210.378 131.205,212.232 131.205,213.365 131.167 C 214.498 131.129,213.571 131.097,211.305 131.097 C 209.039 131.097,208.111 131.129,209.245 131.167 M235.446 131.167 C 239.253 131.200,245.481 131.200,249.287 131.167 C 253.093 131.135,249.979 131.109,242.367 131.109 C 234.754 131.109,231.640 131.135,235.446 131.167 M269.678 131.167 C 270.811 131.205,272.665 131.205,273.798 131.167 C 274.931 131.129,274.004 131.097,271.738 131.097 C 269.472 131.097,268.545 131.129,269.678 131.167 M295.880 131.167 C 299.686 131.200,305.914 131.200,309.720 131.167 C 313.526 131.135,310.412 131.109,302.800 131.109 C 295.188 131.109,292.073 131.135,295.880 131.167 M333.281 131.167 C 335.692 131.201,339.638 131.201,342.050 131.167 C 344.461 131.133,342.488 131.106,337.665 131.106 C 332.842 131.106,330.869 131.133,333.281 131.167 M81.243 152.879 C 81.243 164.501,81.268 169.286,81.299 163.513 C 81.331 157.740,81.331 148.231,81.299 142.383 C 81.268 136.534,81.243 141.257,81.243 152.879 M227.888 152.879 C 227.888 164.501,227.914 169.286,227.945 163.513 C 227.976 157.740,227.976 148.231,227.945 142.383 C 227.914 136.534,227.888 141.257,227.888 152.879 M288.321 152.879 C 288.321 164.501,288.347 169.286,288.378 163.513 C 288.409 157.740,288.409 148.231,288.378 142.383 C 288.347 136.534,288.321 141.257,288.321 152.879 M160.467 135.552 C 160.467 137.528,160.498 138.364,160.537 137.411 C 160.576 136.458,160.577 134.842,160.538 133.819 C 160.499 132.797,160.467 133.576,160.467 135.552 M206.546 152.879 C 206.546 164.385,206.572 169.060,206.603 163.270 C 206.634 157.479,206.634 148.065,206.603 142.351 C 206.572 136.636,206.546 141.373,206.546 152.879 M216.055 152.879 C 216.055 164.385,216.081 169.060,216.112 163.270 C 216.143 157.479,216.143 148.065,216.112 142.351 C 216.081 136.636,216.055 141.373,216.055 152.879 M266.980 152.879 C 266.980 164.385,267.005 169.060,267.036 163.270 C 267.068 157.479,267.068 148.065,267.036 142.351 C 267.005 136.636,266.980 141.373,266.980 152.879 M276.488 152.879 C 276.488 164.385,276.514 169.060,276.545 163.270 C 276.576 157.479,276.576 148.065,276.545 142.351 C 276.514 136.636,276.488 141.373,276.488 152.879 M95.366 140.042 C 98.018 140.076,102.297 140.076,104.874 140.042 C 107.452 140.008,105.283 139.981,100.053 139.981 C 94.823 139.981,92.714 140.009,95.366 140.042 M132.858 140.040 C 133.584 140.081,134.773 140.081,135.499 140.040 C 136.226 139.999,135.631 139.965,134.179 139.965 C 132.726 139.965,132.132 139.999,132.858 140.040 M164.448 140.042 C 166.278 140.077,169.274 140.077,171.104 140.042 C 172.934 140.007,171.437 139.978,167.776 139.978 C 164.115 139.978,162.618 140.007,164.448 140.042 M187.071 140.042 C 188.908 140.077,191.856 140.077,193.621 140.042 C 195.386 140.006,193.883 139.978,190.280 139.978 C 186.677 139.978,185.233 140.007,187.071 140.042 M242.011 140.042 C 244.663 140.076,248.942 140.076,251.520 140.042 C 254.098 140.008,251.928 139.981,246.698 139.981 C 241.469 139.981,239.359 140.009,242.011 140.042 M302.444 140.042 C 305.096 140.076,309.375 140.076,311.953 140.042 C 314.531 140.008,312.361 139.981,307.132 139.981 C 301.902 139.981,299.793 140.009,302.444 140.042 M339.620 140.041 C 340.753 140.079,342.607 140.079,343.740 140.041 C 344.873 140.003,343.946 139.972,341.680 139.972 C 339.414 139.972,338.487 140.003,339.620 140.041 M132.964 153.987 C 133.748 154.027,135.032 154.027,135.816 153.987 C 136.601 153.946,135.959 153.913,134.390 153.913 C 132.821 153.913,132.179 153.946,132.964 153.987 M132.972 162.650 C 133.762 162.691,134.998 162.691,135.719 162.650 C 136.441 162.608,135.795 162.575,134.284 162.575 C 132.773 162.576,132.183 162.610,132.972 162.650 M37.401 167.842 C 37.401 167.879,37.710 168.188,38.088 168.529 L 38.774 169.149 38.154 168.463 C 37.575 167.823,37.401 167.679,37.401 167.842 M55.203 175.327 C 55.755 175.371,56.659 175.371,57.211 175.327 C 57.763 175.283,57.311 175.248,56.207 175.248 C 55.103 175.248,54.651 175.283,55.203 175.327 M148.864 220.708 C 148.864 228.298,148.936 234.464,149.023 234.410 C 149.110 234.356,149.181 228.190,149.181 220.708 C 149.181 213.226,149.110 207.060,149.023 207.006 C 148.936 206.952,148.864 213.118,148.864 220.708 M118.853 220.708 C 118.853 228.262,118.879 231.322,118.912 227.507 C 118.944 223.693,118.944 217.512,118.912 213.772 C 118.879 210.033,118.853 213.154,118.853 220.708 M199.683 226.456 C 199.625 230.895,199.650 234.455,199.738 234.366 C 199.827 234.278,199.875 230.645,199.844 226.294 L 199.788 218.384 199.683 226.456 M275.001 227.998 C 275.001 231.543,275.030 232.993,275.066 231.220 C 275.101 229.448,275.101 226.548,275.066 224.775 C 275.030 223.003,275.001 224.453,275.001 227.998 M254.293 228.420 C 254.293 231.733,254.322 233.088,254.358 231.432 C 254.393 229.775,254.393 227.066,254.358 225.409 C 254.322 223.753,254.293 225.108,254.293 228.420 M238.444 228.737 C 238.444 231.875,238.474 233.188,238.510 231.656 C 238.546 230.123,238.546 227.555,238.510 225.950 C 238.474 224.345,238.444 225.600,238.444 228.737 M166.354 226.096 C 166.354 226.619,166.396 226.833,166.446 226.572 C 166.496 226.310,166.496 225.882,166.446 225.621 C 166.396 225.359,166.354 225.573,166.354 226.096 M177.807 263.603 C 177.807 271.157,177.833 274.217,177.866 270.402 C 177.898 266.587,177.898 260.407,177.866 256.667 C 177.833 252.928,177.807 256.049,177.807 263.603 M245.425 263.603 C 245.425 271.157,245.451 274.217,245.483 270.402 C 245.516 266.587,245.516 260.407,245.483 256.667 C 245.451 252.928,245.424 256.049,245.425 263.603 M227.624 251.030 C 227.624 251.437,227.668 251.603,227.721 251.400 C 227.774 251.197,227.774 250.864,227.721 250.660 C 227.668 250.457,227.624 250.623,227.624 251.030 M233.801 267.089 C 233.801 272.726,233.828 275.032,233.861 272.213 C 233.895 269.395,233.895 264.783,233.861 261.965 C 233.828 259.147,233.801 261.453,233.801 267.089 M216.469 262.969 C 216.469 266.223,216.498 267.525,216.534 265.861 C 216.570 264.198,216.570 261.536,216.534 259.945 C 216.498 258.354,216.469 259.715,216.469 262.969 M121.797 268.674 C 121.797 270.534,121.830 271.266,121.869 270.302 C 121.908 269.337,121.908 267.816,121.868 266.921 C 121.829 266.026,121.797 266.815,121.797 268.674 M146.942 268.674 C 146.943 270.534,146.975 271.266,147.014 270.302 C 147.053 269.337,147.053 267.816,147.014 266.921 C 146.974 266.026,146.942 266.815,146.942 268.674 M305.217 271.632 C 305.217 274.770,305.246 276.083,305.282 274.550 C 305.318 273.017,305.318 270.450,305.282 268.845 C 305.246 267.240,305.217 268.494,305.217 271.632 M198.476 269.519 C 198.477 270.100,198.518 270.313,198.567 269.992 C 198.615 269.671,198.614 269.195,198.564 268.935 C 198.514 268.675,198.474 268.938,198.476 269.519 M121.666 281.659 C 121.633 284.443,121.674 286.652,121.757 286.569 C 121.955 286.370,122.073 276.598,121.877 276.598 C 121.794 276.598,121.699 278.875,121.666 281.659 M146.900 281.616 C 146.943 286.667,147.019 286.085,147.119 279.926 C 147.149 278.095,147.102 276.598,147.015 276.598 C 146.928 276.598,146.876 278.856,146.900 281.616 " stroke="none" fill="#5350af" fill-rule="evenodd"></path><path id="path4" d="M53.832 130.525 C 54.095 130.575,54.476 130.573,54.678 130.520 C 54.880 130.467,54.665 130.426,54.200 130.428 C 53.735 130.431,53.570 130.474,53.832 130.525 M56.157 130.525 C 56.420 130.575,56.800 130.573,57.002 130.520 C 57.204 130.467,56.989 130.426,56.524 130.428 C 56.059 130.431,55.894 130.474,56.157 130.525 M110.177 135.552 C 110.177 137.644,110.209 138.471,110.247 137.390 C 110.286 136.309,110.286 134.598,110.247 133.587 C 110.208 132.576,110.177 133.460,110.177 135.552 M328.258 152.879 C 328.258 164.501,328.284 169.286,328.315 163.513 C 328.346 157.740,328.346 148.231,328.315 142.383 C 328.284 136.534,328.258 141.257,328.258 152.879 M38.344 137.401 L 37.295 138.510 38.405 137.462 C 39.015 136.885,39.514 136.386,39.514 136.352 C 39.514 136.195,39.318 136.370,38.344 137.401 M361.859 137.771 C 362.313 138.236,362.732 138.616,362.790 138.616 C 362.849 138.616,362.525 138.236,362.071 137.771 C 361.617 137.306,361.198 136.926,361.140 136.926 C 361.082 136.926,361.406 137.306,361.859 137.771 M131.526 146.962 C 131.527 150.914,131.555 152.501,131.590 150.488 C 131.625 148.476,131.624 145.243,131.590 143.304 C 131.555 141.365,131.526 143.011,131.526 146.962 M354.349 143.740 C 355.225 144.673,355.415 144.841,355.415 144.682 C 355.415 144.648,354.963 144.197,354.411 143.678 L 353.407 142.736 354.349 143.740 M143.959 146.962 C 143.961 147.544,144.002 147.756,144.050 147.435 C 144.099 147.114,144.097 146.638,144.047 146.378 C 143.997 146.119,143.957 146.381,143.959 146.962 M358.018 152.985 C 358.018 153.740,358.056 154.049,358.103 153.671 C 358.150 153.294,358.150 152.676,358.103 152.298 C 358.056 151.920,358.018 152.229,358.018 152.985 M367.945 152.773 C 367.945 153.413,367.985 153.674,368.033 153.354 C 368.081 153.035,368.081 152.512,368.033 152.192 C 367.985 151.873,367.945 152.134,367.945 152.773 M45.536 162.282 C 45.990 162.747,46.409 163.127,46.467 163.127 C 46.525 163.127,46.201 162.747,45.747 162.282 C 45.294 161.817,44.875 161.437,44.817 161.437 C 44.758 161.437,45.082 161.817,45.536 162.282 M131.524 168.093 C 131.524 171.231,131.553 172.544,131.589 171.011 C 131.625 169.478,131.626 166.911,131.590 165.306 C 131.554 163.701,131.524 164.955,131.524 168.093 M95.366 165.821 C 98.018 165.855,102.297 165.855,104.874 165.821 C 107.452 165.788,105.283 165.760,100.053 165.760 C 94.823 165.760,92.714 165.788,95.366 165.821 M302.444 165.821 C 305.096 165.855,309.375 165.855,311.953 165.821 C 314.531 165.788,312.361 165.760,307.132 165.760 C 301.902 165.760,299.793 165.788,302.444 165.821 M339.631 165.821 C 340.770 165.859,342.576 165.859,343.645 165.820 C 344.714 165.782,343.782 165.751,341.574 165.751 C 339.366 165.751,338.491 165.783,339.631 165.821 M110.177 170.206 C 110.177 172.298,110.209 173.125,110.247 172.044 C 110.286 170.963,110.286 169.252,110.247 168.241 C 110.208 167.230,110.177 168.114,110.177 170.206 M184.130 211.094 C 184.130 212.779,184.163 213.468,184.203 212.625 C 184.243 211.783,184.243 210.404,184.203 209.562 C 184.163 208.719,184.130 209.408,184.130 211.094 M124.549 216.376 C 124.549 218.991,124.579 220.061,124.616 218.753 C 124.653 217.446,124.653 215.306,124.616 213.999 C 124.579 212.691,124.549 213.761,124.549 216.376 M204.407 216.270 C 204.406 217.316,204.442 217.771,204.486 217.281 C 204.530 216.790,204.531 215.934,204.487 215.379 C 204.444 214.823,204.407 215.225,204.407 216.270 M238.664 215.113 C 238.369 215.440,238.237 215.477,238.106 215.272 C 237.984 215.078,237.935 215.074,237.932 215.254 C 237.926 215.743,238.296 215.723,238.781 215.207 C 239.050 214.920,239.221 214.686,239.161 214.686 C 239.101 214.686,238.877 214.878,238.664 215.113 M209.603 216.112 L 208.875 216.904 209.667 216.176 C 210.405 215.498,210.557 215.320,210.395 215.320 C 210.360 215.320,210.003 215.676,209.603 216.112 M245.163 216.376 C 245.163 216.783,245.206 216.949,245.259 216.746 C 245.312 216.543,245.312 216.210,245.259 216.006 C 245.206 215.803,245.163 215.969,245.163 216.376 M178.645 223.983 C 178.645 227.063,178.674 228.323,178.710 226.783 C 178.747 225.243,178.747 222.723,178.710 221.183 C 178.674 219.643,178.645 220.903,178.645 223.983 M184.138 223.666 C 184.138 226.572,184.168 227.789,184.204 226.373 C 184.241 224.956,184.241 222.578,184.204 221.090 C 184.168 219.601,184.138 220.761,184.138 223.666 M261.852 227.827 C 261.827 231.394,261.878 234.356,261.965 234.410 C 262.052 234.464,262.099 232.592,262.070 230.250 C 261.967 222.147,261.897 221.368,261.852 227.827 M267.300 228.569 C 267.242 231.846,267.268 234.455,267.357 234.366 C 267.446 234.276,267.493 231.595,267.462 228.406 L 267.406 222.610 267.300 228.569 M222.353 224.089 C 222.355 224.670,222.396 224.882,222.444 224.561 C 222.493 224.240,222.492 223.765,222.441 223.505 C 222.391 223.245,222.352 223.508,222.353 224.089 M208.440 263.497 C 208.440 267.042,208.469 268.492,208.505 266.719 C 208.540 264.947,208.540 262.047,208.505 260.275 C 208.469 258.502,208.440 259.952,208.440 263.497 M305.437 258.008 C 305.141 258.335,305.009 258.372,304.879 258.167 C 304.756 257.973,304.707 257.968,304.705 258.149 C 304.698 258.638,305.069 258.618,305.553 258.102 C 305.822 257.815,305.994 257.581,305.933 257.581 C 305.873 257.581,305.649 257.773,305.437 258.008 M311.935 259.271 C 311.935 259.678,311.978 259.844,312.032 259.641 C 312.085 259.437,312.085 259.105,312.032 258.901 C 311.978 258.698,311.935 258.864,311.935 259.271 M263.378 272.213 L 262.758 272.900 263.444 272.280 C 264.084 271.701,264.228 271.527,264.065 271.527 C 264.029 271.527,263.719 271.836,263.378 272.213 " stroke="none" fill="#877ac2" fill-rule="evenodd"></path></g></svg>