<svg id="svg" version="1.1" xmlns="http://www.w3.org/2000/svg" xmlns:xlink="http://www.w3.org/1999/xlink" width="400" height="392.17758985200845" viewBox="0, 0, 400,392.17758985200845"><g id="svgg"><path id="path0" d="M171.776 30.357 C 157.582 32.365,149.089 45.737,153.787 58.679 L 154.270 60.011 152.813 61.007 C 142.748 67.884,142.716 83.844,152.754 91.024 C 156.575 93.758,162.508 95.147,166.523 94.248 C 167.169 94.104,167.202 94.132,167.641 95.213 C 173.783 110.346,196.224 110.876,203.398 96.057 C 203.733 95.365,203.955 95.134,204.203 95.218 C 204.391 95.282,205.221 95.572,206.046 95.864 C 213.143 98.372,221.939 95.300,225.907 88.926 C 226.500 87.973,226.571 87.927,227.273 88.044 C 245.478 91.091,259.837 72.984,253.090 55.488 C 248.463 43.488,233.670 37.350,221.970 42.575 C 221.718 42.687,221.434 42.396,220.818 41.394 C 214.975 31.890,200.483 29.850,192.182 37.361 C 190.704 38.699,190.794 38.695,189.772 37.460 C 185.826 32.692,177.764 29.510,171.776 30.357 M289.958 320.643 C 247.051 341.278,211.085 358.483,210.033 358.877 C 203.739 361.236,196.083 361.200,189.746 358.784 C 188.584 358.340,152.669 341.213,109.937 320.724 C 67.204 300.235,32.087 283.424,31.900 283.367 C 31.617 283.282,31.748 284.091,32.665 288.091 C 33.274 290.745,34.313 295.279,34.975 298.165 C 37.386 308.677,40.039 313.543,45.959 318.311 C 48.826 320.620,48.920 320.667,119.027 354.438 C 185.963 386.681,189.546 388.379,192.072 389.069 C 198.263 390.759,205.177 390.352,211.099 387.951 C 213.936 386.800,348.668 321.859,350.634 320.695 C 355.290 317.937,359.072 313.877,361.573 308.952 C 363.395 305.363,363.390 305.379,366.276 292.706 C 367.388 287.822,368.349 283.660,368.412 283.457 C 368.613 282.811,369.340 282.466,289.958 320.643 " stroke="none" fill="#5a9be5" fill-rule="evenodd"></path><path id="path1" d="M51.586 130.767 C 36.144 133.188,27.494 149.206,34.236 162.891 C 39.879 174.343,55.889 178.708,69.076 172.391 C 71.284 171.333,71.274 171.398,69.876 167.485 C 68.500 163.630,68.221 163.264,67.054 163.771 C 53.451 169.677,41.868 164.656,41.868 152.854 C 41.868 141.658,52.802 136.291,65.304 141.350 C 67.884 142.394,67.764 142.479,69.439 138.392 C 71.089 134.365,71.088 134.336,69.288 133.460 C 64.315 131.038,56.976 129.921,51.586 130.767 M81.883 131.292 C 81.585 131.412,81.374 131.729,81.293 132.177 C 81.016 133.715,81.276 173.961,81.564 174.250 C 82.015 174.700,108.965 174.761,109.650 174.313 C 110.296 173.889,110.441 166.708,109.816 166.083 C 109.524 165.791,108.348 165.751,100.091 165.751 L 90.698 165.751 90.698 161.839 L 90.698 157.928 99.248 157.928 L 107.798 157.928 108.128 157.458 C 108.391 157.082,108.457 156.334,108.457 153.700 C 108.457 151.066,108.391 150.318,108.128 149.941 L 107.798 149.471 99.248 149.471 L 90.698 149.471 90.698 144.715 L 90.698 139.958 100.091 139.958 C 108.348 139.958,109.524 139.918,109.816 139.625 C 110.419 139.022,110.299 131.842,109.678 131.407 C 109.144 131.033,82.797 130.924,81.883 131.292 M122.833 131.352 L 122.304 131.619 122.248 152.755 L 122.191 173.890 122.641 174.260 C 123.277 174.783,130.295 174.817,131.031 174.301 C 131.497 173.975,131.501 173.922,131.501 168.276 L 131.501 162.579 134.223 162.579 C 135.720 162.579,137.220 162.524,137.556 162.457 C 138.149 162.339,138.295 162.512,142.371 168.176 C 147.528 175.340,146.511 174.630,151.619 174.630 C 158.595 174.630,158.583 175.252,151.777 166.253 L 146.961 159.885 147.952 159.238 C 155.666 154.201,156.011 140.400,148.563 134.756 C 145.895 132.735,142.632 131.624,138.372 131.288 C 134.460 130.979,123.480 131.024,122.833 131.352 M161.311 131.230 C 160.731 131.455,160.683 131.792,160.680 135.669 C 160.676 140.449,159.842 139.958,167.957 139.958 L 174.419 139.958 174.419 156.972 L 174.419 173.986 174.930 174.321 C 175.658 174.798,183.205 174.698,183.514 174.207 C 183.636 174.015,183.716 167.225,183.718 156.924 L 183.721 139.958 190.169 139.958 C 198.282 139.958,197.514 140.439,197.424 135.409 C 197.376 132.749,197.281 131.657,197.083 131.458 C 196.798 131.174,162.030 130.953,161.311 131.230 M207.400 131.226 C 207.225 131.296,207.013 131.458,206.927 131.586 C 206.842 131.714,206.770 141.358,206.769 153.018 L 206.765 174.218 207.341 174.437 C 208.458 174.861,215.417 174.595,215.768 174.114 C 216.217 173.499,216.217 132.209,215.768 131.594 C 215.465 131.180,208.300 130.864,207.400 131.226 M228.606 131.292 C 228.308 131.412,228.097 131.729,228.016 132.177 C 227.739 133.715,227.999 173.961,228.288 174.250 C 228.603 174.565,236.619 174.657,236.927 174.348 C 237.024 174.252,237.151 170.636,237.209 166.315 L 237.315 158.457 245.831 158.401 L 254.346 158.346 254.552 157.806 C 254.664 157.509,254.757 155.798,254.757 154.003 C 254.757 149.428,255.800 149.894,245.560 149.894 L 237.209 149.894 237.209 144.926 L 237.209 139.958 246.708 139.958 C 255.061 139.958,256.247 139.918,256.539 139.625 C 257.142 139.022,257.022 131.842,256.401 131.407 C 255.867 131.033,229.520 130.924,228.606 131.292 M267.865 131.226 C 267.690 131.296,267.478 131.458,267.392 131.586 C 267.307 131.714,267.235 141.358,267.234 153.018 L 267.230 174.218 267.806 174.437 C 268.923 174.861,275.882 174.595,276.233 174.114 C 276.682 173.499,276.682 132.209,276.233 131.594 C 275.930 131.180,268.765 130.864,267.865 131.226 M289.071 131.292 C 288.773 131.412,288.562 131.729,288.481 132.177 C 288.205 133.715,288.464 173.961,288.753 174.250 C 289.203 174.700,316.154 174.761,316.838 174.313 C 317.484 173.889,317.629 166.708,317.004 166.083 C 316.712 165.791,315.536 165.751,307.279 165.751 L 297.886 165.751 297.886 161.839 L 297.886 157.928 306.436 157.928 L 314.987 157.928 315.316 157.458 C 315.579 157.082,315.645 156.334,315.645 153.700 C 315.645 151.066,315.579 150.318,315.316 149.941 L 314.987 149.471 306.436 149.471 L 297.886 149.471 297.886 144.715 L 297.886 139.958 307.279 139.958 C 315.536 139.958,316.712 139.918,317.004 139.625 C 317.607 139.022,317.487 131.842,316.866 131.407 C 316.332 131.033,289.985 130.924,289.071 131.292 M329.175 131.212 C 328.315 131.554,328.330 131.169,328.330 152.895 C 328.330 173.502,328.336 173.790,328.753 174.207 C 329.241 174.695,342.637 174.847,347.182 174.416 C 359.982 173.202,368.672 163.676,368.010 151.586 C 367.450 141.346,360.426 133.634,349.789 131.580 C 348.060 131.246,329.906 130.922,329.175 131.212 M140.043 140.507 C 142.650 141.518,143.975 143.637,143.975 146.798 C 143.975 152.150,141.305 154.106,133.985 154.118 L 131.501 154.123 131.501 147.017 L 131.501 139.911 135.254 140.008 C 138.268 140.086,139.210 140.185,140.043 140.507 M349.642 140.635 C 361.332 144.851,360.976 161.272,349.108 165.261 C 348.329 165.523,346.921 165.622,342.970 165.695 L 337.844 165.789 337.844 152.854 L 337.844 139.919 342.970 139.999 C 347.874 140.075,348.164 140.102,349.642 140.635 M200.634 206.480 C 196.553 207.095,194.735 208.853,194.231 212.670 L 194.010 214.342 193.252 214.478 C 192.836 214.553,192.138 214.707,191.702 214.820 L 190.909 215.027 190.909 216.687 C 190.909 218.601,190.912 218.605,192.829 218.605 L 194.080 218.605 194.080 226.401 C 194.080 235.574,193.766 234.709,197.070 234.627 L 199.471 234.567 199.527 226.593 L 199.582 218.619 201.852 218.559 L 204.123 218.499 204.123 216.385 L 204.123 214.271 201.850 214.211 C 199.303 214.143,199.184 214.035,199.862 212.414 C 200.332 211.289,200.720 211.109,202.923 210.994 L 204.935 210.888 205.557 209.020 C 206.291 206.812,206.317 206.853,204.022 206.566 C 202.239 206.343,201.640 206.328,200.634 206.480 M118.913 207.241 C 118.858 207.386,118.837 213.594,118.867 221.036 L 118.922 234.567 121.429 234.626 C 124.760 234.706,124.524 235.049,124.524 230.131 L 124.524 226.065 127.748 225.944 C 135.807 225.643,139.718 222.100,139.257 215.522 C 138.919 210.698,136.126 207.960,130.761 207.196 C 128.501 206.874,119.040 206.910,118.913 207.241 M143.812 207.224 C 143.404 207.632,143.437 234.103,143.846 234.442 C 144.041 234.604,144.953 234.666,146.542 234.627 L 148.943 234.567 148.943 220.825 L 148.943 207.082 146.507 207.023 C 144.793 206.982,143.995 207.041,143.812 207.224 M180.867 208.838 C 178.308 209.744,178.443 209.558,178.439 212.182 L 178.436 214.323 176.903 214.614 L 175.370 214.905 175.308 216.578 C 175.234 218.566,175.263 218.597,177.220 218.601 L 178.647 218.605 178.647 224.380 C 178.647 233.271,179.791 235.155,185.201 235.173 C 188.936 235.186,189.106 235.055,188.606 232.546 L 188.250 230.761 186.673 230.655 C 183.956 230.473,183.932 230.412,183.932 223.685 L 183.932 218.605 186.216 218.605 C 189.006 218.605,189.006 218.604,189.006 216.385 C 189.006 214.165,189.006 214.165,186.216 214.165 L 183.932 214.165 183.932 211.099 C 183.932 207.481,184.181 207.664,180.867 208.838 M131.223 212.354 C 132.919 213.144,133.512 214.189,133.501 216.369 C 133.482 219.944,131.895 221.129,127.114 221.137 L 124.313 221.142 124.313 216.490 L 124.313 211.839 127.220 211.841 C 129.847 211.843,130.232 211.893,131.223 212.354 M161.099 213.518 C 158.809 213.834,154.968 215.298,154.968 215.856 C 154.968 215.968,155.325 216.783,155.761 217.665 C 156.665 219.496,156.508 219.456,159.091 218.518 C 162.812 217.168,165.994 218.026,166.322 220.468 L 166.432 221.290 163.910 221.438 C 156.101 221.895,152.867 224.674,153.869 230.064 C 154.764 234.877,161.186 236.932,165.621 233.825 C 166.812 232.991,167.019 233.022,167.019 234.033 C 167.019 234.243,167.170 234.473,167.353 234.544 C 167.835 234.729,171.841 234.702,171.940 234.514 C 172.287 233.850,171.686 219.660,171.252 218.304 C 170.105 214.710,166.110 212.827,161.099 213.518 M215.222 213.533 C 208.191 214.652,204.592 222.196,207.658 229.387 C 210.841 236.854,222.958 237.214,226.534 229.949 C 230.896 221.086,224.656 212.032,215.222 213.533 M242.495 213.455 C 241.082 213.719,239.803 214.299,239.002 215.037 C 238.056 215.909,237.844 215.903,237.844 215.001 C 237.844 214.064,237.470 213.933,234.977 213.999 L 232.699 214.059 232.750 224.099 C 232.785 230.859,232.876 234.228,233.028 234.412 C 233.195 234.613,233.901 234.670,235.708 234.626 L 238.161 234.567 238.266 228.330 C 238.383 221.444,238.439 221.133,239.810 219.689 C 240.752 218.698,241.597 218.393,243.410 218.393 L 244.974 218.393 245.124 216.147 C 245.207 214.912,245.193 213.818,245.092 213.718 C 244.864 213.490,243.205 213.322,242.495 213.455 M258.324 213.534 C 257.142 213.734,255.552 214.415,254.636 215.113 C 253.908 215.669,253.700 215.621,253.700 214.896 C 253.700 214.071,253.263 213.935,250.833 213.999 L 248.556 214.059 248.607 224.099 C 248.641 230.859,248.732 234.228,248.884 234.412 C 249.051 234.613,249.757 234.670,251.564 234.626 L 254.017 234.567 254.123 227.907 L 254.228 221.247 254.852 220.122 C 256.351 217.415,259.938 217.083,261.335 219.521 C 261.832 220.390,261.841 220.499,261.945 227.484 L 262.051 234.567 264.588 234.567 L 267.125 234.567 267.234 228.118 C 267.381 219.462,268.024 217.969,271.607 217.971 C 274.711 217.973,274.920 218.550,275.053 227.484 L 275.159 234.567 277.560 234.627 C 280.838 234.709,280.550 235.353,280.545 227.934 C 280.540 219.407,280.204 217.584,278.266 215.574 C 275.534 212.740,270.137 212.679,267.132 215.449 L 266.175 216.332 265.339 215.471 C 263.690 213.772,261.119 213.062,258.324 213.534 M219.404 218.299 C 223.375 219.957,223.370 228.670,219.397 230.330 C 215.699 231.875,212.571 229.502,212.313 224.957 C 212.005 219.552,215.207 216.545,219.404 218.299 M166.344 226.640 C 166.037 230.882,159.408 232.528,159.408 228.362 C 159.408 226.278,160.878 225.411,164.455 225.385 L 166.436 225.370 166.344 226.640 M91.218 250.159 C 91.162 250.304,91.141 256.512,91.171 263.953 L 91.226 277.484 97.463 277.460 C 108.922 277.416,113.416 274.732,114.927 267.031 C 116.443 259.297,113.206 252.903,106.733 250.850 C 103.906 249.953,91.507 249.401,91.218 250.159 M186.729 250.142 C 186.321 250.550,186.355 277.020,186.764 277.360 C 186.959 277.521,187.870 277.584,189.459 277.544 L 191.860 277.484 191.860 263.742 L 191.860 250.000 189.425 249.941 C 187.710 249.899,186.912 249.959,186.729 250.142 M297.727 250.033 C 297.541 250.109,297.463 250.754,297.463 252.215 C 297.463 254.593,297.424 254.545,299.383 254.545 L 300.634 254.545 300.634 263.742 L 300.634 272.939 299.383 272.939 C 297.422 272.939,297.463 272.889,297.463 275.283 C 297.463 277.845,296.834 277.621,303.805 277.544 L 309.197 277.484 309.197 275.264 L 309.197 273.044 307.664 272.982 L 306.131 272.920 306.131 263.742 L 306.131 254.564 307.664 254.502 L 309.197 254.440 309.197 252.220 L 309.197 250.000 303.594 249.962 C 300.513 249.941,297.873 249.973,297.727 250.033 M103.700 255.044 C 108.049 256.206,109.926 259.735,109.277 265.528 C 108.706 270.626,106.264 272.519,100.053 272.681 L 96.617 272.771 96.617 263.764 L 96.617 254.757 99.630 254.759 C 101.467 254.761,103.055 254.872,103.700 255.044 M127.011 256.455 C 121.732 257.344,118.913 261.153,118.958 267.336 C 119.019 275.687,125.958 280.304,133.997 277.343 C 137.507 276.050,137.881 275.457,136.451 273.452 C 135.324 271.873,135.373 271.884,133.480 272.778 C 129.984 274.429,126.130 273.598,124.919 270.932 C 124.146 269.232,123.702 269.345,131.176 269.345 C 139.059 269.345,138.397 269.632,138.200 266.291 C 137.784 259.243,133.391 255.381,127.011 256.455 M170.352 256.455 C 165.073 257.344,162.254 261.153,162.299 267.336 C 162.359 275.687,169.298 280.304,177.338 277.343 C 180.848 276.050,181.222 275.457,179.791 273.452 C 178.664 271.873,178.713 271.884,176.821 272.778 C 173.325 274.429,169.470 273.598,168.259 270.932 C 167.487 269.232,167.042 269.345,174.517 269.345 C 182.399 269.345,181.738 269.632,181.540 266.291 C 181.124 259.243,176.732 255.381,170.352 256.455 M205.497 256.451 C 198.466 257.570,194.867 265.113,197.933 272.304 C 201.116 279.771,213.233 280.132,216.809 272.866 C 221.171 264.004,214.931 254.949,205.497 256.451 M233.298 256.384 C 231.913 256.568,230.491 257.102,229.489 257.814 C 228.216 258.719,228.118 258.729,228.118 257.954 C 228.118 256.979,227.763 256.850,225.261 256.917 L 222.994 256.977 223.031 271.663 C 223.057 281.919,223.138 286.433,223.299 286.627 C 223.471 286.834,224.154 286.890,225.983 286.846 L 228.436 286.786 228.492 281.765 C 228.523 279.004,228.583 276.744,228.625 276.744 C 228.667 276.744,229.213 276.977,229.837 277.262 C 232.095 278.292,234.733 278.398,237.191 277.557 C 245.803 274.613,245.225 258.413,236.441 256.552 C 235.003 256.247,234.525 256.222,233.298 256.384 M255.130 256.455 C 249.851 257.344,247.032 261.153,247.077 267.336 C 247.137 275.687,254.076 280.304,262.116 277.343 C 265.626 276.050,266.000 275.457,264.569 273.452 C 263.442 271.873,263.491 271.884,261.599 272.778 C 258.103 274.429,254.248 273.598,253.037 270.932 C 252.265 269.232,251.820 269.345,259.295 269.345 C 267.177 269.345,266.516 269.632,266.318 266.291 C 265.902 259.243,261.510 255.381,255.130 256.455 M280.973 256.372 C 279.560 256.637,278.281 257.216,277.480 257.954 C 276.534 258.827,276.321 258.820,276.321 257.919 C 276.321 256.981,275.948 256.851,273.454 256.917 L 271.177 256.977 271.228 267.017 C 271.263 273.777,271.353 277.146,271.506 277.330 C 271.673 277.531,272.379 277.587,274.186 277.543 L 276.638 277.484 276.744 271.247 C 276.863 264.217,276.949 263.795,278.529 262.407 C 279.596 261.470,280.087 261.311,281.909 261.311 L 283.452 261.311 283.602 259.065 C 283.685 257.829,283.670 256.736,283.570 256.635 C 283.342 256.407,281.682 256.239,280.973 256.372 M140.207 257.055 C 139.898 257.251,147.134 277.105,147.629 277.420 C 147.956 277.628,152.669 277.635,152.985 277.428 C 153.474 277.108,160.527 257.252,160.221 257.058 C 159.874 256.838,155.378 256.816,155.053 257.033 C 154.925 257.118,153.834 260.350,152.628 264.214 C 151.423 268.078,150.379 271.170,150.310 271.085 C 150.240 271.000,149.197 267.838,147.992 264.059 C 146.786 260.280,145.699 257.118,145.575 257.033 C 145.262 256.818,140.550 256.837,140.207 257.055 M130.805 261.092 C 131.704 261.640,132.567 262.977,132.710 264.044 L 132.825 264.905 128.565 264.905 L 124.305 264.905 124.439 264.323 C 125.130 261.326,128.437 259.647,130.805 261.092 M174.146 261.092 C 175.044 261.640,175.907 262.977,176.050 264.044 L 176.166 264.905 171.905 264.905 L 167.645 264.905 167.779 264.323 C 168.470 261.326,171.777 259.647,174.146 261.092 M258.924 261.092 C 259.822 261.640,260.685 262.977,260.828 264.044 L 260.944 264.905 256.683 264.905 L 252.423 264.905 252.557 264.323 C 253.248 261.326,256.555 259.647,258.924 261.092 M209.679 261.216 C 213.650 262.875,213.644 271.588,209.671 273.248 C 205.974 274.792,202.846 272.420,202.588 267.874 C 202.280 262.469,205.482 259.463,209.679 261.216 M235.683 261.489 C 238.109 263.217,238.459 269.105,236.317 272.151 C 235.193 273.750,231.931 274.082,229.633 272.831 L 228.509 272.220 228.578 268.298 C 228.662 263.514,229.085 262.449,231.395 261.208 C 232.364 260.688,234.781 260.847,235.683 261.489 " stroke="none" fill="#fafafb" fill-rule="evenodd"></path><path id="path2" d="M121.882 2.128 C 115.270 2.796,108.918 5.761,104.271 10.348 C 102.817 11.783,9.363 128.686,7.015 132.007 C 2.870 137.869,0.906 146.037,1.977 152.960 C 2.207 154.452,30.282 278.047,31.421 282.586 C 31.553 283.111,187.309 357.876,190.563 358.975 C 196.198 360.880,203.135 360.947,208.879 359.151 C 210.482 358.650,367.970 283.262,368.482 282.751 C 368.691 282.542,397.692 155.071,398.011 152.960 C 399.076 145.914,397.154 137.903,392.985 132.007 C 390.637 128.686,297.183 11.783,295.729 10.348 C 291.772 6.442,286.749 3.798,280.769 2.472 L 278.753 2.025 201.163 1.991 C 158.488 1.972,122.812 2.034,121.882 2.128 M179.107 30.829 C 183.044 31.884,186.153 33.683,189.028 36.567 L 190.846 38.392 191.776 37.557 C 200.466 29.762,214.283 31.479,220.779 41.160 C 221.233 41.836,221.636 42.422,221.675 42.463 C 221.715 42.503,222.297 42.330,222.970 42.078 C 241.154 35.275,259.425 52.459,253.981 71.245 C 250.718 82.505,238.765 90.240,227.758 88.213 L 226.658 88.010 225.935 89.090 C 221.171 96.209,212.277 98.734,204.201 95.260 C 203.943 95.149,203.798 95.277,203.628 95.766 C 203.235 96.892,201.187 99.838,199.866 101.176 C 190.361 110.806,173.997 108.259,168.057 96.226 L 167.154 94.397 163.545 94.397 C 145.323 94.397,138.051 70.570,153.224 60.578 C 153.718 60.252,154.122 59.975,154.121 59.961 C 154.120 59.948,153.894 59.271,153.618 58.457 C 148.217 42.524,162.990 26.511,179.107 30.829 M60.571 130.765 C 64.427 131.346,69.622 133.060,70.514 134.045 C 71.026 134.611,70.869 135.299,69.437 138.757 C 67.858 142.572,67.910 142.538,65.194 141.448 C 52.772 136.465,42.014 141.758,42.014 152.854 C 42.014 164.080,53.297 169.430,65.829 164.144 C 68.517 163.011,68.368 162.893,69.980 167.401 C 71.385 171.328,71.383 171.337,69.192 172.436 C 61.974 176.056,51.807 176.252,44.421 172.915 C 31.808 167.215,27.839 150.881,36.330 139.614 C 41.703 132.483,50.547 129.255,60.571 130.765 M110.030 131.548 C 110.531 132.262,110.513 139.015,110.010 139.571 C 109.680 139.935,109.095 139.958,100.179 139.958 L 90.698 139.958 90.698 144.609 L 90.698 149.260 99.107 149.260 C 109.577 149.260,108.457 148.728,108.457 153.700 C 108.457 158.671,109.577 158.140,99.107 158.140 L 90.698 158.140 90.698 161.945 L 90.698 165.751 100.199 165.751 L 109.701 165.751 110.030 166.220 C 110.296 166.600,110.359 167.365,110.359 170.190 C 110.359 173.016,110.296 173.781,110.030 174.160 L 109.701 174.630 95.775 174.630 C 83.396 174.630,81.811 174.593,81.516 174.298 C 80.994 173.775,81.011 132.043,81.534 131.465 C 81.866 131.098,82.586 131.078,95.792 131.078 L 109.701 131.078 110.030 131.548 M142.542 131.767 C 150.004 133.773,153.955 138.981,153.967 146.829 C 153.976 152.412,152.220 156.269,148.382 159.097 L 147.187 159.978 152.131 166.511 C 157.062 173.028,157.419 173.629,156.750 174.298 C 156.139 174.909,147.144 174.782,146.583 174.154 C 146.349 173.893,144.367 171.181,142.178 168.129 L 138.199 162.579 134.956 162.579 L 131.712 162.579 131.712 168.135 C 131.712 175.335,132.240 174.630,126.850 174.630 C 122.745 174.630,122.638 174.619,122.316 174.160 C 121.805 173.430,121.817 132.261,122.329 131.530 L 122.670 131.043 131.578 131.129 C 140.387 131.213,140.509 131.220,142.542 131.767 M197.131 131.410 C 197.560 131.840,197.631 139.283,197.209 139.704 C 197.023 139.890,195.227 139.958,190.444 139.958 L 183.932 139.958 183.932 156.907 C 183.932 172.382,183.902 173.890,183.582 174.243 C 182.988 174.900,175.003 174.826,174.536 174.160 C 174.245 173.744,174.207 171.747,174.207 156.824 L 174.207 139.958 167.555 139.958 C 161.195 139.958,160.893 139.940,160.684 139.549 C 160.289 138.812,160.401 131.922,160.815 131.465 C 161.317 130.910,196.577 130.857,197.131 131.410 M215.735 131.410 C 216.309 131.984,216.234 174.103,215.659 174.411 C 214.917 174.808,207.399 174.695,206.941 174.280 C 206.370 173.764,206.334 132.095,206.904 131.465 C 207.397 130.920,215.197 130.872,215.735 131.410 M256.753 131.548 C 257.254 132.262,257.236 139.015,256.733 139.571 C 256.404 139.935,255.818 139.958,246.902 139.958 L 237.421 139.958 237.421 144.926 L 237.421 149.894 245.835 149.894 C 252.098 149.894,254.314 149.959,254.503 150.148 C 254.937 150.582,254.852 157.684,254.407 158.176 C 254.079 158.538,253.529 158.562,245.739 158.562 L 237.421 158.562 237.421 166.210 C 237.421 173.029,237.383 173.899,237.071 174.243 C 236.578 174.788,228.778 174.836,228.239 174.298 C 227.717 173.775,227.734 132.043,228.257 131.465 C 228.589 131.098,229.309 131.078,242.515 131.078 L 256.424 131.078 256.753 131.548 M276.124 131.297 C 276.766 131.641,276.766 174.067,276.124 174.411 C 275.382 174.808,267.864 174.695,267.406 174.280 C 266.835 173.764,266.799 132.095,267.369 131.465 C 267.775 131.016,275.328 130.871,276.124 131.297 M317.218 131.548 C 317.719 132.262,317.701 139.015,317.198 139.571 C 316.869 139.935,316.283 139.958,307.367 139.958 L 297.886 139.958 297.886 144.609 L 297.886 149.260 306.295 149.260 C 316.765 149.260,315.645 148.728,315.645 153.700 C 315.645 158.671,316.765 158.140,306.295 158.140 L 297.886 158.140 297.886 161.945 L 297.886 165.751 307.330 165.751 C 315.821 165.751,316.813 165.786,317.161 166.100 C 317.700 166.588,317.748 173.403,317.218 174.160 L 316.889 174.630 303.017 174.630 C 290.406 174.630,289.110 174.598,288.759 174.280 C 288.188 173.764,288.152 132.095,288.722 131.465 C 289.054 131.098,289.775 131.078,302.981 131.078 L 316.889 131.078 317.218 131.548 M348.558 131.301 C 373.450 134.655,375.170 168.135,350.753 174.047 C 348.542 174.582,329.224 174.897,328.634 174.408 C 328.118 173.980,328.183 131.607,328.700 131.307 C 329.204 131.013,346.383 131.008,348.558 131.301 M131.712 146.934 L 131.712 153.911 134.619 153.908 C 140.926 153.901,143.486 152.180,143.892 147.674 C 144.377 142.289,141.436 139.975,134.091 139.962 L 131.712 139.958 131.712 146.934 M337.844 152.854 L 337.844 165.800 342.653 165.692 C 347.974 165.572,348.735 165.437,351.348 164.146 C 360.240 159.754,360.319 146.179,351.480 141.606 C 348.977 140.311,348.019 140.139,342.653 140.017 L 337.844 139.908 337.844 152.854 M205.655 206.669 C 206.259 206.854,206.258 207.305,205.649 209.197 C 204.975 211.294,205.042 211.235,203.503 211.078 C 201.165 210.838,199.789 211.676,199.789 213.341 L 199.789 214.151 202.061 214.211 L 204.334 214.271 204.334 216.385 L 204.334 218.499 202.064 218.559 L 199.794 218.619 199.738 226.593 L 199.683 234.567 196.934 234.567 L 194.186 234.567 194.131 226.586 L 194.075 218.605 192.492 218.605 L 190.909 218.605 190.909 216.815 C 190.909 214.793,190.952 214.734,192.618 214.484 C 193.964 214.282,194.006 214.232,194.128 212.672 C 194.372 209.559,196.048 207.485,198.992 206.657 C 200.124 206.338,204.597 206.346,205.655 206.669 M132.402 207.387 C 136.980 208.558,139.123 211.170,139.285 215.779 C 139.526 222.647,135.682 225.993,127.541 226.001 L 124.533 226.004 124.476 230.285 L 124.419 234.567 121.564 234.567 L 118.710 234.567 118.656 221.036 C 118.625 213.594,118.646 207.386,118.702 207.241 C 118.888 206.755,130.411 206.877,132.402 207.387 M149.154 220.825 L 149.154 234.567 146.406 234.567 L 143.658 234.567 143.603 221.036 C 143.573 213.594,143.594 207.384,143.651 207.235 C 143.730 207.030,144.412 206.978,146.455 207.023 L 149.154 207.082 149.154 220.825 M184.097 211.040 L 184.155 214.151 186.528 214.211 L 188.901 214.271 188.901 216.385 L 188.901 218.499 186.522 218.559 L 184.144 218.618 184.144 223.991 L 184.144 229.363 184.654 229.956 C 185.128 230.506,185.279 230.550,186.716 230.550 L 188.266 230.550 188.529 231.607 C 189.354 234.930,189.232 235.108,186.035 235.262 C 182.510 235.432,180.410 234.443,179.178 232.036 L 178.541 230.793 178.474 224.699 L 178.406 218.605 176.835 218.605 L 175.264 218.605 175.264 216.716 C 175.264 214.633,175.188 214.741,176.850 214.475 C 178.538 214.205,178.436 214.367,178.436 211.943 C 178.436 209.410,178.218 209.682,181.078 208.632 C 184.210 207.483,184.027 207.337,184.097 211.040 M124.524 216.490 L 124.524 221.142 126.812 221.142 C 131.466 221.142,133.411 219.755,133.399 216.444 C 133.387 213.069,131.657 211.839,126.917 211.839 L 124.524 211.839 124.524 216.490 M166.187 213.654 C 170.870 214.719,171.664 216.493,171.907 226.427 C 172.003 230.322,172.107 233.747,172.140 234.038 L 172.199 234.567 169.770 234.627 C 167.117 234.693,166.808 234.567,166.808 233.428 L 166.808 232.898 166.121 233.563 C 163.753 235.854,158.613 235.917,155.689 233.691 C 153.710 232.184,153.050 227.687,154.440 225.175 C 155.831 222.661,159.177 221.369,164.323 221.357 L 166.173 221.353 166.173 220.524 C 166.173 217.982,162.484 217.224,158.300 218.905 C 156.605 219.586,156.635 219.600,155.703 217.749 C 154.682 215.722,154.711 215.577,156.290 214.828 C 159.373 213.365,163.016 212.933,166.187 213.654 M220.276 213.645 C 230.791 216.123,230.509 232.864,219.916 235.073 C 211.428 236.843,204.943 230.043,206.791 221.311 C 208.039 215.413,213.824 212.124,220.276 213.645 M244.909 213.448 C 245.320 213.605,245.412 218.053,245.009 218.301 C 244.881 218.381,244.096 218.462,243.265 218.481 C 241.623 218.520,240.696 218.883,239.795 219.841 C 238.643 221.065,238.592 221.394,238.478 228.224 L 238.372 234.567 235.624 234.567 L 232.875 234.567 232.732 224.841 C 232.653 219.493,232.558 214.878,232.521 214.588 L 232.452 214.059 235.088 214.059 L 237.724 214.059 237.949 214.862 L 238.175 215.664 238.696 215.106 C 239.939 213.775,243.374 212.859,244.909 213.448 M263.319 213.930 C 263.901 214.186,264.770 214.782,265.252 215.253 L 266.127 216.110 267.288 215.165 C 270.570 212.492,275.879 212.728,278.520 215.666 C 280.397 217.754,280.442 218.015,280.443 226.850 L 280.444 234.567 277.696 234.567 L 274.947 234.567 274.841 227.378 C 274.708 218.299,274.391 217.546,270.919 218.067 C 268.048 218.497,267.573 219.855,267.442 228.013 L 267.336 234.567 264.588 234.567 L 261.839 234.567 261.734 227.378 C 261.632 220.439,261.612 220.165,261.164 219.450 C 259.749 217.192,256.286 217.583,254.910 220.157 C 254.460 220.999,254.435 221.321,254.334 227.801 L 254.228 234.567 251.480 234.567 L 248.732 234.567 248.588 224.841 C 248.509 219.493,248.414 214.878,248.377 214.588 L 248.309 214.059 250.943 214.059 L 253.578 214.059 253.773 214.737 L 253.967 215.415 254.924 214.757 C 257.118 213.247,260.926 212.872,263.319 213.930 M215.394 218.292 C 211.617 219.504,211.270 228.334,214.929 230.140 C 218.578 231.941,221.887 229.540,222.152 224.898 C 222.445 219.753,219.577 216.949,215.394 218.292 M163.002 225.509 C 160.509 225.896,159.538 226.689,159.538 228.338 C 159.538 232.347,165.876 230.808,166.136 226.736 L 166.223 225.370 164.877 225.399 C 164.136 225.415,163.293 225.464,163.002 225.509 M106.128 250.508 C 111.775 252.194,114.598 255.660,115.226 261.681 C 115.924 268.365,113.406 273.618,108.351 276.027 C 105.486 277.393,104.845 277.480,97.569 277.482 L 91.015 277.484 90.960 263.953 C 90.930 256.512,90.954 250.296,91.013 250.141 C 91.219 249.603,104.148 249.917,106.128 250.508 M192.072 263.742 L 192.072 277.484 189.323 277.484 L 186.575 277.484 186.520 263.953 C 186.490 256.512,186.512 250.301,186.569 250.152 C 186.647 249.947,187.329 249.896,189.372 249.941 L 192.072 250.000 192.072 263.742 M309.408 252.220 L 309.408 254.440 307.875 254.502 L 306.342 254.564 306.342 263.742 L 306.342 272.920 307.875 272.982 L 309.408 273.044 309.408 275.264 L 309.408 277.484 303.436 277.540 L 297.463 277.596 297.463 275.268 L 297.463 272.939 298.943 272.939 L 300.423 272.939 300.423 263.742 L 300.423 254.545 298.943 254.545 L 297.463 254.545 297.463 252.217 L 297.463 249.888 303.436 249.944 L 309.408 250.000 309.408 252.220 M96.829 263.769 L 96.829 272.781 99.841 272.674 C 106.964 272.424,109.659 269.564,109.244 262.698 C 108.898 256.980,106.066 254.763,99.101 254.758 L 96.829 254.757 96.829 263.769 M131.569 256.553 C 135.995 257.706,138.377 261.477,138.221 267.083 L 138.161 269.239 131.342 269.295 C 127.592 269.325,124.524 269.385,124.524 269.427 C 124.524 273.078,129.596 274.661,134.056 272.401 C 135.404 271.718,135.403 271.717,136.666 273.569 C 137.877 275.346,137.859 275.441,136.134 276.487 C 129.795 280.329,121.697 277.934,119.431 271.548 C 116.280 262.669,123.031 254.329,131.569 256.553 M174.909 256.553 C 179.335 257.706,181.718 261.477,181.561 267.083 L 181.501 269.239 174.683 269.295 C 170.933 269.325,167.865 269.385,167.865 269.427 C 167.865 273.078,172.937 274.661,177.397 272.401 C 178.745 271.718,178.743 271.717,180.006 273.569 C 181.217 275.346,181.200 275.441,179.475 276.487 C 173.136 280.329,165.038 277.934,162.771 271.548 C 159.621 262.669,166.372 254.329,174.909 256.553 M210.551 256.562 C 221.066 259.041,220.784 275.781,210.190 277.990 C 201.703 279.760,195.218 272.961,197.066 264.228 C 198.314 258.330,204.099 255.041,210.551 256.562 M238.351 257.056 C 245.534 260.593,244.940 274.741,237.488 277.597 C 235.183 278.481,231.777 278.373,229.765 277.353 C 229.334 277.135,228.931 276.956,228.871 276.956 C 228.810 276.956,228.735 279.168,228.704 281.871 L 228.647 286.786 225.899 286.786 L 223.150 286.786 223.013 272.410 C 222.938 264.503,222.843 257.796,222.802 257.505 L 222.727 256.977 225.363 256.977 L 227.999 256.977 228.227 257.790 C 228.432 258.518,228.486 258.567,228.746 258.254 C 230.414 256.244,235.430 255.618,238.351 257.056 M259.687 256.553 C 264.113 257.706,266.496 261.477,266.339 267.083 L 266.279 269.239 259.461 269.295 C 255.711 269.325,252.643 269.385,252.643 269.427 C 252.643 273.078,257.715 274.661,262.175 272.401 C 263.523 271.718,263.521 271.717,264.784 273.569 C 265.995 275.346,265.978 275.441,264.253 276.487 C 257.914 280.329,249.816 277.934,247.549 271.548 C 244.399 262.669,251.150 254.329,259.687 256.553 M283.387 256.365 C 283.797 256.523,283.890 260.970,283.487 261.219 C 283.358 261.298,282.574 261.379,281.743 261.399 C 280.101 261.437,279.174 261.800,278.273 262.758 C 277.121 263.983,277.069 264.311,276.956 271.142 L 276.850 277.484 274.101 277.484 L 271.353 277.484 271.210 267.759 C 271.131 262.410,271.036 257.796,270.998 257.505 L 270.930 256.977 273.566 256.977 L 276.202 256.977 276.427 257.779 L 276.652 258.582 277.174 258.023 C 278.417 256.693,281.852 255.776,283.387 256.365 M145.814 257.135 C 145.924 257.281,146.952 260.349,148.099 263.953 C 149.246 267.558,150.240 270.576,150.308 270.660 C 150.376 270.744,151.371 267.794,152.519 264.106 C 153.667 260.417,154.699 257.281,154.813 257.135 C 155.209 256.629,160.465 256.774,160.465 257.291 C 160.465 257.783,153.544 276.932,153.222 277.331 C 153.060 277.532,152.271 277.586,150.159 277.543 L 147.313 277.484 143.635 267.583 C 141.613 262.137,139.958 257.499,139.958 257.276 C 139.958 256.772,145.440 256.640,145.814 257.135 M127.206 260.983 C 126.110 261.374,125.611 261.860,125.025 263.108 C 124.137 264.997,123.950 264.905,128.664 264.905 L 132.803 264.905 132.655 264.218 C 132.046 261.397,129.794 260.060,127.206 260.983 M170.546 260.983 C 169.451 261.374,168.951 261.860,168.365 263.108 C 167.478 264.997,167.291 264.905,172.004 264.905 L 176.144 264.905 175.995 264.218 C 175.386 261.397,173.134 260.060,170.546 260.983 M255.324 260.983 C 254.229 261.374,253.729 261.860,253.143 263.108 C 252.256 264.997,252.069 264.905,256.782 264.905 L 260.922 264.905 260.773 264.218 C 260.164 261.397,257.912 260.060,255.324 260.983 M205.669 261.209 C 201.892 262.422,201.545 271.251,205.204 273.058 C 208.853 274.859,212.162 272.457,212.427 267.815 C 212.720 262.670,209.851 259.866,205.669 261.209 M231.900 261.180 C 229.298 262.109,228.753 263.362,228.753 268.400 L 228.753 272.236 229.893 272.794 C 234.391 274.997,237.518 272.673,237.523 267.125 C 237.527 262.298,235.315 259.959,231.900 261.180 " stroke="none" fill="#2c0c8c" fill-rule="evenodd"></path><path id="path3" d="M137.159 131.228 C 137.422 131.278,137.802 131.276,138.005 131.223 C 138.207 131.171,137.992 131.129,137.526 131.132 C 137.061 131.134,136.896 131.177,137.159 131.228 M345.827 131.228 C 346.090 131.278,346.471 131.276,346.673 131.223 C 346.875 131.171,346.660 131.129,346.195 131.132 C 345.729 131.134,345.564 131.177,345.827 131.228 M160.552 135.518 C 160.552 137.553,160.584 138.385,160.623 137.368 C 160.661 136.350,160.661 134.686,160.623 133.668 C 160.584 132.651,160.552 133.483,160.552 135.518 M206.656 152.854 C 206.656 164.424,206.681 169.157,206.712 163.372 C 206.744 157.587,206.744 148.121,206.712 142.336 C 206.681 136.551,206.656 141.284,206.656 152.854 M267.121 152.854 C 267.121 164.424,267.146 169.157,267.178 163.372 C 267.209 157.587,267.209 148.121,267.178 142.336 C 267.146 136.551,267.121 141.284,267.121 152.854 M361.945 137.738 C 362.339 138.145,362.710 138.478,362.768 138.478 C 362.826 138.478,362.551 138.145,362.156 137.738 C 361.762 137.331,361.392 136.998,361.334 136.998 C 361.275 136.998,361.551 137.331,361.945 137.738 M55.765 139.477 C 56.145 139.524,56.716 139.523,57.033 139.475 C 57.351 139.426,57.040 139.388,56.342 139.389 C 55.645 139.390,55.385 139.430,55.765 139.477 M183.822 156.871 C 183.822 166.232,183.848 170.061,183.879 165.381 C 183.911 160.700,183.911 153.042,183.879 148.362 C 183.848 143.681,183.822 147.511,183.822 156.871 M237.300 144.926 C 237.301 147.717,237.331 148.829,237.367 147.398 C 237.404 145.967,237.404 143.684,237.367 142.324 C 237.330 140.964,237.300 142.135,237.300 144.926 M354.325 143.605 C 355.201 144.538,355.391 144.706,355.391 144.547 C 355.391 144.513,354.939 144.061,354.387 143.543 L 353.383 142.600 354.325 143.605 M132.822 154.068 C 133.607 154.109,134.892 154.109,135.677 154.068 C 136.461 154.027,135.819 153.994,134.249 153.994 C 132.680 153.994,132.038 154.027,132.822 154.068 M149.883 157.664 L 149.154 158.457 149.947 157.728 C 150.685 157.050,150.837 156.871,150.676 156.871 C 150.640 156.871,150.284 157.228,149.883 157.664 M237.306 158.616 C 237.250 158.762,237.230 162.259,237.262 166.386 L 237.321 173.890 237.371 166.229 L 237.421 158.567 245.719 158.509 L 254.017 158.452 245.712 158.401 C 239.208 158.362,237.385 158.408,237.306 158.616 M354.430 161.998 L 353.594 162.896 354.493 162.061 C 355.328 161.283,355.488 161.099,355.328 161.099 C 355.294 161.099,354.889 161.504,354.430 161.998 M45.560 162.368 C 46.014 162.833,46.434 163.214,46.492 163.214 C 46.550 163.214,46.226 162.833,45.772 162.368 C 45.317 161.903,44.898 161.522,44.840 161.522 C 44.782 161.522,45.106 161.903,45.560 162.368 M55.021 166.327 C 55.457 166.373,56.171 166.373,56.607 166.327 C 57.043 166.282,56.686 166.244,55.814 166.244 C 54.942 166.244,54.585 166.282,55.021 166.327 M361.833 167.918 L 360.571 169.239 361.892 167.977 C 362.619 167.283,363.214 166.688,363.214 166.656 C 363.214 166.499,363.005 166.690,361.833 167.918 M184.016 211.205 C 184.016 212.891,184.049 213.581,184.089 212.738 C 184.129 211.895,184.129 210.515,184.089 209.672 C 184.049 208.829,184.016 209.519,184.016 211.205 M124.403 216.490 C 124.403 219.107,124.434 220.177,124.471 218.869 C 124.508 217.561,124.508 215.420,124.471 214.112 C 124.434 212.804,124.403 213.874,124.403 216.490 M204.303 216.385 C 204.303 217.431,204.338 217.886,204.383 217.395 C 204.427 216.905,204.428 216.048,204.384 215.493 C 204.340 214.937,204.304 215.338,204.303 216.385 M238.579 215.227 C 238.283 215.554,238.151 215.591,238.021 215.386 C 237.898 215.192,237.849 215.187,237.847 215.368 C 237.840 215.857,238.211 215.837,238.695 215.321 C 238.965 215.034,239.136 214.799,239.076 214.799 C 239.016 214.799,238.792 214.992,238.579 215.227 M209.502 216.226 L 208.774 217.019 209.567 216.290 C 210.003 215.890,210.359 215.533,210.359 215.498 C 210.359 215.336,210.181 215.488,209.502 216.226 M245.081 216.490 C 245.081 216.897,245.124 217.064,245.177 216.860 C 245.231 216.657,245.231 216.324,245.177 216.121 C 245.124 215.917,245.081 216.084,245.081 216.490 M178.528 224.101 C 178.528 227.183,178.557 228.443,178.594 226.903 C 178.630 225.362,178.630 222.841,178.594 221.300 C 178.557 219.760,178.528 221.020,178.528 224.101 M184.024 223.784 C 184.024 226.691,184.054 227.910,184.090 226.492 C 184.127 225.075,184.127 222.696,184.090 221.207 C 184.054 219.717,184.024 220.877,184.024 223.784 M261.779 227.947 C 261.754 231.516,261.805 234.480,261.892 234.534 C 261.979 234.588,262.026 232.715,261.997 230.371 C 261.894 222.265,261.824 221.485,261.779 227.947 M267.230 228.689 C 267.172 231.969,267.198 234.579,267.287 234.489 C 267.376 234.400,267.423 231.717,267.392 228.527 L 267.336 222.727 267.230 228.689 M222.259 224.207 C 222.261 224.789,222.302 225.001,222.350 224.680 C 222.399 224.359,222.398 223.883,222.348 223.623 C 222.297 223.363,222.258 223.626,222.259 224.207 M96.714 263.742 C 96.714 268.742,96.742 270.757,96.776 268.220 C 96.809 265.683,96.809 261.593,96.776 259.129 C 96.742 256.666,96.714 258.742,96.714 263.742 M277.057 258.145 C 276.761 258.471,276.629 258.509,276.499 258.303 C 276.376 258.110,276.327 258.105,276.325 258.286 C 276.318 258.775,276.689 258.754,277.173 258.239 C 277.443 257.952,277.614 257.717,277.554 257.717 C 277.493 257.717,277.270 257.909,277.057 258.145 M199.777 259.144 L 199.049 259.937 199.841 259.208 C 200.579 258.530,200.731 258.351,200.570 258.351 C 200.535 258.351,200.178 258.708,199.777 259.144 M283.559 259.408 C 283.559 259.815,283.602 259.982,283.655 259.778 C 283.708 259.575,283.708 259.242,283.655 259.038 C 283.602 258.835,283.559 259.001,283.559 259.408 M212.534 267.125 C 212.536 267.706,212.577 267.919,212.625 267.598 C 212.674 267.276,212.673 266.800,212.622 266.540 C 212.572 266.280,212.532 266.543,212.534 267.125 " stroke="none" fill="#8578c2" fill-rule="evenodd"></path><path id="path4" d="M175.529 30.378 C 175.732 30.431,176.065 30.431,176.268 30.378 C 176.472 30.325,176.305 30.282,175.899 30.282 C 175.492 30.282,175.325 30.325,175.529 30.378 M203.865 32.714 C 204.421 32.757,205.277 32.757,205.767 32.713 C 206.258 32.668,205.803 32.633,204.757 32.633 C 203.710 32.634,203.309 32.670,203.865 32.714 M191.424 37.896 L 190.803 38.584 191.490 37.963 C 191.868 37.621,192.178 37.312,192.178 37.275 C 192.178 37.112,192.003 37.256,191.424 37.896 M230.074 40.748 C 230.743 40.790,231.837 40.790,232.505 40.748 C 233.174 40.706,232.627 40.672,231.290 40.672 C 229.952 40.672,229.405 40.706,230.074 40.748 M152.506 51.480 C 152.506 52.526,152.541 52.981,152.586 52.491 C 152.630 52.000,152.631 51.144,152.587 50.588 C 152.543 50.032,152.507 50.433,152.506 51.480 M254.834 64.588 C 254.835 65.751,254.870 66.199,254.913 65.585 C 254.956 64.971,254.955 64.019,254.912 63.471 C 254.869 62.922,254.834 63.425,254.834 64.588 M145.107 76.004 C 145.106 77.051,145.142 77.506,145.186 77.015 C 145.231 76.524,145.231 75.668,145.187 75.112 C 145.144 74.556,145.107 74.958,145.107 76.004 M247.773 81.554 L 246.617 82.770 247.833 81.614 C 248.962 80.540,249.145 80.338,248.989 80.338 C 248.956 80.338,248.408 80.885,247.773 81.554 M150.423 89.218 C 150.877 89.683,151.296 90.063,151.354 90.063 C 151.412 90.063,151.088 89.683,150.634 89.218 C 150.180 88.753,149.761 88.372,149.703 88.372 C 149.645 88.372,149.969 88.753,150.423 89.218 M223.565 91.808 L 222.516 92.918 223.626 91.868 C 224.236 91.291,224.736 90.792,224.736 90.758 C 224.736 90.601,224.540 90.776,223.565 91.808 M209.567 96.763 C 209.770 96.816,210.103 96.816,210.307 96.763 C 210.510 96.710,210.344 96.666,209.937 96.666 C 209.530 96.666,209.363 96.710,209.567 96.763 M212.526 96.763 C 212.730 96.816,213.063 96.816,213.266 96.763 C 213.470 96.710,213.303 96.666,212.896 96.666 C 212.489 96.666,212.323 96.710,212.526 96.763 M171.036 100.700 C 171.036 100.737,171.345 101.046,171.723 101.388 L 172.410 102.008 171.789 101.321 C 171.210 100.681,171.036 100.537,171.036 100.700 M184.932 107.129 C 185.307 107.176,185.973 107.177,186.412 107.131 C 186.850 107.085,186.543 107.047,185.729 107.046 C 184.915 107.045,184.557 107.083,184.932 107.129 M110.235 135.624 C 110.236 137.717,110.267 138.544,110.306 137.463 C 110.344 136.381,110.344 134.669,110.305 133.657 C 110.267 132.646,110.235 133.531,110.235 135.624 M122.089 152.854 C 122.089 164.424,122.115 169.157,122.146 163.372 C 122.177 157.587,122.177 148.121,122.146 142.336 C 122.115 136.551,122.089 141.284,122.089 152.854 M256.958 135.624 C 256.959 137.717,256.990 138.544,257.029 137.463 C 257.067 136.381,257.067 134.669,257.028 133.657 C 256.990 132.646,256.958 133.531,256.958 135.624 M317.424 135.624 C 317.424 137.717,317.455 138.544,317.494 137.463 C 317.532 136.381,317.532 134.669,317.493 133.657 C 317.455 132.646,317.423 133.531,317.424 135.624 M131.596 146.934 C 131.596 150.830,131.624 152.423,131.659 150.476 C 131.694 148.528,131.694 145.341,131.659 143.393 C 131.624 141.446,131.596 143.039,131.596 146.934 M174.308 156.871 C 174.308 166.232,174.334 170.061,174.366 165.381 C 174.397 160.700,174.397 153.042,174.366 148.362 C 174.334 143.681,174.308 147.511,174.308 156.871 M153.982 146.934 C 153.982 147.807,154.020 148.163,154.065 147.727 C 154.111 147.291,154.111 146.578,154.065 146.142 C 154.020 145.706,153.982 146.062,153.982 146.934 M94.873 149.418 C 97.228 149.452,101.081 149.452,103.436 149.418 C 105.790 149.384,103.864 149.356,99.154 149.356 C 94.445 149.356,92.518 149.384,94.873 149.418 M302.061 149.418 C 304.416 149.452,308.269 149.452,310.624 149.418 C 312.978 149.384,311.052 149.356,306.342 149.356 C 301.633 149.356,299.707 149.384,302.061 149.418 M31.762 152.854 C 31.762 153.261,31.805 153.428,31.858 153.224 C 31.911 153.021,31.911 152.688,31.858 152.484 C 31.805 152.281,31.762 152.447,31.762 152.854 M94.873 158.086 C 97.228 158.120,101.081 158.120,103.436 158.086 C 105.790 158.052,103.864 158.025,99.154 158.025 C 94.445 158.025,92.518 158.052,94.873 158.086 M302.061 158.086 C 304.416 158.120,308.269 158.120,310.624 158.086 C 312.978 158.052,311.052 158.025,306.342 158.025 C 301.633 158.025,299.707 158.052,302.061 158.086 M131.594 168.182 C 131.593 171.321,131.623 172.635,131.659 171.101 C 131.695 169.568,131.695 166.999,131.659 165.393 C 131.623 163.787,131.594 165.042,131.594 168.182 M317.424 170.085 C 317.424 172.178,317.455 173.005,317.494 171.924 C 317.532 170.842,317.532 169.130,317.493 168.118 C 317.455 167.107,317.423 167.992,317.424 170.085 M110.235 170.190 C 110.235 172.225,110.267 173.058,110.305 172.040 C 110.344 171.023,110.344 169.358,110.305 168.340 C 110.267 167.323,110.235 168.155,110.235 170.190 M37.421 167.931 C 37.421 167.967,37.730 168.276,38.108 168.618 L 38.795 169.239 38.174 168.552 C 37.595 167.911,37.421 167.768,37.421 167.931 M118.704 220.825 C 118.704 228.383,118.731 231.444,118.763 227.627 C 118.795 223.811,118.795 217.627,118.763 213.885 C 118.731 210.144,118.704 213.266,118.704 220.825 M149.148 220.825 C 149.148 228.383,149.175 231.444,149.207 227.627 C 149.239 223.811,149.239 217.627,149.207 213.885 C 149.175 210.144,149.148 213.266,149.148 220.825 M199.577 226.575 C 199.519 231.017,199.544 234.579,199.633 234.490 C 199.721 234.401,199.769 230.767,199.738 226.414 L 199.683 218.499 199.577 226.575 M274.935 228.118 C 274.935 231.665,274.964 233.116,275.000 231.342 C 275.035 229.569,275.035 226.668,275.000 224.894 C 274.964 223.121,274.935 224.572,274.935 228.118 M254.216 228.541 C 254.216 231.855,254.245 233.211,254.281 231.554 C 254.316 229.897,254.316 227.186,254.281 225.529 C 254.245 223.872,254.216 225.227,254.216 228.541 M238.359 228.858 C 238.359 231.998,238.388 233.312,238.424 231.778 C 238.460 230.244,238.460 227.676,238.425 226.070 C 238.389 224.464,238.359 225.719,238.359 228.858 M166.231 226.216 C 166.231 226.739,166.272 226.953,166.323 226.691 C 166.373 226.430,166.373 226.002,166.323 225.740 C 166.272 225.478,166.231 225.692,166.231 226.216 M91.009 263.742 C 91.009 271.300,91.035 274.361,91.068 270.545 C 91.100 266.728,91.100 260.544,91.068 256.803 C 91.035 253.061,91.009 256.184,91.009 263.742 M191.966 263.784 C 191.908 271.366,191.933 277.497,192.021 277.409 C 192.109 277.321,192.156 271.118,192.126 263.624 L 192.072 250.000 191.966 263.784 M309.381 252.220 C 309.381 253.441,309.415 253.940,309.458 253.330 C 309.501 252.719,309.501 251.720,309.458 251.110 C 309.415 250.499,309.381 250.999,309.381 252.220 M300.520 263.742 C 300.520 268.858,300.548 270.921,300.581 268.326 C 300.615 265.731,300.615 261.545,300.581 259.024 C 300.547 256.503,300.520 258.626,300.520 263.742 M306.228 263.742 C 306.228 268.858,306.256 270.921,306.289 268.326 C 306.323 265.731,306.323 261.545,306.289 259.024 C 306.256 256.503,306.228 258.626,306.228 263.742 M115.280 263.636 C 115.280 264.160,115.321 264.374,115.371 264.112 C 115.422 263.850,115.422 263.422,115.371 263.161 C 115.321 262.899,115.280 263.113,115.280 263.636 M228.627 268.816 C 228.627 270.677,228.659 271.409,228.699 270.445 C 228.738 269.480,228.738 267.957,228.698 267.062 C 228.659 266.166,228.627 266.956,228.627 268.816 M276.837 271.776 C 276.837 274.915,276.866 276.229,276.902 274.696 C 276.938 273.162,276.938 270.593,276.902 268.987 C 276.866 267.381,276.837 268.636,276.837 271.776 M309.381 275.264 C 309.381 276.485,309.415 276.985,309.458 276.374 C 309.501 275.764,309.501 274.765,309.458 274.154 C 309.415 273.544,309.381 274.043,309.381 275.264 M228.584 281.765 C 228.628 286.818,228.703 286.236,228.804 280.074 C 228.834 278.242,228.787 276.744,228.700 276.744 C 228.613 276.744,228.561 279.004,228.584 281.765 M198.996 360.621 C 199.548 360.664,200.452 360.664,201.004 360.621 C 201.557 360.577,201.105 360.541,200.000 360.541 C 198.895 360.541,198.443 360.577,198.996 360.621 " stroke="none" fill="#4f51b0" fill-rule="evenodd"></path></g></svg>