<svg version="1.1" id="Layer_1" xmlns="http://www.w3.org/2000/svg" xmlns:xlink="http://www.w3.org/1999/xlink" x="0px" y="0px"
	 width="100%" viewBox="0 0 643 643" enable-background="new 0 0 643 643" xml:space="preserve">
<path fill="#FFFFFF" opacity="1.000000" stroke="none" 
	d="
M370.000000,644.000000 
	C246.666687,644.000000 123.833374,644.000000 1.000049,644.000000 
	C1.000033,429.666718 1.000033,215.333450 1.000016,1.000136 
	C215.333237,1.000090 429.666473,1.000090 643.999756,1.000045 
	C643.999878,215.333191 643.999878,429.666382 643.999939,643.999756 
	C552.833313,644.000000 461.666656,644.000000 370.000000,644.000000 
M361.088074,577.015747 
	C335.129181,577.010498 309.170197,576.969299 283.211639,577.060425 
	C280.839905,577.068726 278.335754,577.582397 276.127075,578.454224 
	C270.176208,580.803101 266.570160,588.809448 268.016968,595.808716 
	C268.809204,599.641296 275.936737,605.968384 279.786377,605.974915 
	C307.242859,606.021606 334.699554,606.033813 362.155945,605.968506 
	C367.091003,605.956726 371.887817,602.019165 373.029144,597.824219 
	C375.377441,589.192871 374.046051,581.492371 362.920074,577.460815 
	C362.618927,577.362793 362.317810,577.264709 361.088074,577.015747 
M206.490356,357.993378 
	C209.063461,360.009308 211.509613,362.218628 214.232666,364.006165 
	C223.721161,370.234924 228.531128,378.174713 228.254044,390.272308 
	C227.717941,413.678802 228.666885,437.119324 229.000580,460.545746 
	C229.010086,461.212006 228.945633,461.889771 229.044373,462.542725 
	C232.793015,487.330688 256.016022,507.790253 281.040527,507.168823 
	C310.180328,506.445251 339.351837,507.000397 368.509583,506.998718 
	C369.842316,506.998657 371.211243,507.177399 372.502411,506.940643 
	C398.563141,502.162384 416.765625,481.388885 416.963959,454.846161 
	C417.136993,431.687897 417.034119,408.527191 416.980377,385.367737 
	C416.962982,377.869171 420.080994,372.279480 426.170868,367.920319 
	C443.105499,355.798431 457.917603,341.479889 470.023621,324.466003 
	C489.408752,297.222076 500.233459,266.720306 502.773254,233.568604 
	C503.966553,217.992325 503.076813,202.317581 500.216858,186.694305 
	C494.111450,153.341766 479.603882,124.226761 457.359314,99.044434 
	C439.422455,78.738670 417.851471,63.169952 392.578430,52.816257 
	C371.288574,44.094353 349.267029,39.182365 326.301636,39.114922 
	C316.775940,39.086948 307.226959,40.125664 297.722961,41.037704 
	C279.859100,42.751980 262.985352,48.228817 246.805054,55.711155 
	C224.233765,66.148903 204.578568,80.546600 188.029449,99.300117 
	C178.213394,110.423698 169.813675,122.406151 162.931671,135.458588 
	C152.803925,154.666931 146.645264,175.034363 143.723526,196.669189 
	C141.398315,213.886932 141.565338,230.939224 144.239212,247.842972 
	C148.011749,271.692291 156.164825,294.210510 169.003098,314.805939 
	C179.068970,330.953888 191.146805,345.432007 206.490356,357.993378 
M369.218323,561.000000 
	C377.649658,560.918884 383.939880,554.923157 383.980927,546.758057 
	C384.021027,538.785706 378.435608,532.032104 369.219910,532.018311 
	C337.441071,531.970764 305.662109,531.978333 273.883270,532.014160 
	C265.181305,532.023987 258.979919,538.203613 259.000031,546.640991 
	C259.020630,555.290649 264.948425,560.997070 273.940460,560.998352 
	C305.386597,561.002686 336.832733,561.000000 369.218323,561.000000 
z"/>
<path fill="#FFD700" opacity="1.000000" stroke="none" 
	d="
M206.237976,357.736725 
	C191.146805,345.432007 179.068970,330.953888 169.003098,314.805939 
	C156.164825,294.210510 148.011749,271.692291 144.239212,247.842972 
	C141.565338,230.939224 141.398315,213.886932 143.723526,196.669189 
	C146.645264,175.034363 152.803925,154.666931 162.931671,135.458588 
	C169.813675,122.406151 178.213394,110.423698 188.029449,99.300117 
	C204.578568,80.546600 224.233765,66.148903 246.805054,55.711155 
	C262.985352,48.228817 279.859100,42.751980 297.722961,41.037704 
	C307.226959,40.125664 316.775940,39.086948 326.301636,39.114922 
	C349.267029,39.182365 371.288574,44.094353 392.578430,52.816257 
	C417.851471,63.169952 439.422455,78.738670 457.359314,99.044434 
	C479.603882,124.226761 494.111450,153.341766 500.216858,186.694305 
	C503.076813,202.317581 503.966553,217.992325 502.773254,233.568604 
	C500.233459,266.720306 489.408752,297.222076 470.023621,324.466003 
	C457.917603,341.479889 443.105499,355.798431 426.170868,367.920319 
	C420.080994,372.279480 416.962982,377.869171 416.980377,385.367737 
	C417.034119,408.527191 417.136993,431.687897 416.963959,454.846161 
	C416.765625,481.388885 398.563141,502.162384 372.502411,506.940643 
	C371.211243,507.177399 369.842316,506.998657 368.509583,506.998718 
	C339.351837,507.000397 310.180328,506.445251 281.040527,507.168823 
	C256.016022,507.790253 232.793015,487.330688 229.044373,462.542725 
	C228.945633,461.889771 229.010086,461.212006 229.000580,460.545746 
	C228.666885,437.119324 227.717941,413.678802 228.254044,390.272308 
	C228.531128,378.174713 223.721161,370.234924 214.232666,364.006165 
	C211.509613,362.218628 209.063461,360.009308 206.237976,357.736725 
M442.933716,144.673904 
	C435.973938,135.965897 429.781067,126.475319 421.877777,118.730080 
	C409.472076,106.572395 395.180389,96.799225 378.982422,89.909424 
	C361.763855,82.585487 343.865234,78.386612 325.271667,78.197105 
	C314.993408,78.092346 304.583130,79.347664 294.427490,81.112747 
	C269.895172,85.376526 248.426651,96.567162 229.831619,112.836601 
	C208.631897,131.384949 193.842499,154.283401 186.142227,181.574020 
	C180.652573,201.029984 179.290192,220.858566 182.212662,240.733383 
	C184.590836,256.906708 189.911102,272.286285 197.865616,286.775391 
	C208.317123,305.812775 221.837845,322.024933 239.783234,334.295349 
	C256.101685,345.453278 265.887299,360.681946 266.803894,380.315643 
	C267.950562,404.876953 267.690826,429.504761 267.986694,454.104492 
	C268.089081,462.615051 273.317230,467.993622 281.739960,467.996490 
	C309.238831,468.005890 336.740814,467.774628 364.234406,468.155548 
	C371.268799,468.252991 378.204193,461.484283 378.171387,454.137817 
	C378.058685,428.875000 378.556183,403.606812 379.046173,378.345032 
	C379.291656,365.690704 384.301025,354.612579 393.017273,345.770386 
	C399.658020,339.033661 407.840637,333.847809 414.910553,327.496918 
	C432.124115,312.033997 445.756683,294.009125 454.405121,272.278320 
	C464.096527,247.926971 466.813263,222.826813 462.807343,197.143875 
	C459.919525,178.629593 453.191284,161.300705 442.933716,144.673904 
z"/>
<path fill="#172A3A" opacity="1.000000" stroke="none" 
	d="
M368.748596,561.000000 
	C336.832733,561.000000 305.386597,561.002686 273.940460,560.998352 
	C264.948425,560.997070 259.020630,555.290649 259.000031,546.640991 
	C258.979919,538.203613 265.181305,532.023987 273.883270,532.014160 
	C305.662109,531.978333 337.441071,531.970764 369.219910,532.018311 
	C378.435608,532.032104 384.021027,538.785706 383.980927,546.758057 
	C383.939880,554.923157 377.649658,560.918884 368.748596,561.000000 
z"/>
<path fill="#172A3A" opacity="1.000000" stroke="none" 
	d="
M362.833344,577.987366 
	C374.046051,581.492371 375.377441,589.192871 373.029144,597.824219 
	C371.887817,602.019165 367.091003,605.956726 362.155945,605.968506 
	C334.699554,606.033813 307.242859,606.021606 279.786377,605.974915 
	C275.936737,605.968384 268.809204,599.641296 268.016968,595.808716 
	C266.570160,588.809448 270.176208,580.803101 276.127075,578.454224 
	C278.335754,577.582397 280.839905,577.068726 283.211639,577.060425 
	C309.170197,576.969299 335.129181,577.010498 361.644287,577.267700 
	C362.364319,577.739319 362.575256,577.895203 362.833344,577.987366 
z"/>
<path fill="#172A3A" opacity="1.000000" stroke="none" 
	d="
M362.876709,577.724121 
	C362.575256,577.895203 362.364319,577.739319 362.108582,577.343140 
	C362.317810,577.264709 362.618927,577.362793 362.876709,577.724121 
z"/>
<path fill="#FFFFFF" opacity="1.000000" stroke="none" 
	d="
M443.005463,145.037781 
	C453.191284,161.300705 459.919525,178.629593 462.807343,197.143875 
	C466.813263,222.826813 464.096527,247.926971 454.405121,272.278320 
	C445.756683,294.009125 432.124115,312.033997 414.910553,327.496918 
	C407.840637,333.847809 399.658020,339.033661 393.017273,345.770386 
	C384.301025,354.612579 379.291656,365.690704 379.046173,378.345032 
	C378.556183,403.606812 378.058685,428.875000 378.171387,454.137817 
	C378.204193,461.484283 371.268799,468.252991 364.234406,468.155548 
	C336.740814,467.774628 309.238831,468.005890 281.739960,467.996490 
	C273.317230,467.993622 268.089081,462.615051 267.986694,454.104492 
	C267.690826,429.504761 267.950562,404.876953 266.803894,380.315643 
	C265.887299,360.681946 256.101685,345.453278 239.783234,334.295349 
	C221.837845,322.024933 208.317123,305.812775 197.865616,286.775391 
	C189.911102,272.286285 184.590836,256.906708 182.212662,240.733383 
	C179.290192,220.858566 180.652573,201.029984 186.142227,181.574020 
	C193.842499,154.283401 208.631897,131.384949 229.831619,112.836601 
	C248.426651,96.567162 269.895172,85.376526 294.427490,81.112747 
	C304.583130,79.347664 314.993408,78.092346 325.271667,78.197105 
	C343.865234,78.386612 361.763855,82.585487 378.982422,89.909424 
	C395.180389,96.799225 409.472076,106.572395 421.877777,118.730080 
	C429.781067,126.475319 435.973938,135.965897 443.005463,145.037781 
M337.025513,267.101746 
	C338.043060,266.410614 338.971344,265.364197 340.091797,265.082672 
	C352.919495,261.859680 363.209961,254.630890 371.662170,244.760147 
	C380.210297,234.777420 385.276428,223.143219 385.929413,209.928268 
	C386.315460,202.114899 385.760925,194.257339 386.071991,186.437256 
	C386.344177,179.595261 380.923920,172.980637 372.453156,173.005569 
	C364.010101,173.030426 358.770386,179.655563 358.889618,186.530029 
	C359.029541,194.600540 358.874573,202.751312 357.894867,210.750610 
	C355.764008,228.149323 342.123596,238.894714 326.806671,240.865799 
	C310.267700,242.994156 293.368744,232.199188 289.284637,216.075226 
	C286.948364,206.851776 287.200470,196.858826 287.145355,187.207443 
	C287.101166,179.470169 280.903748,173.581314 274.242950,173.184875 
	C267.898346,172.807251 261.588959,175.844681 259.991577,184.236435 
	C257.710205,196.221512 259.093994,208.093918 261.462799,219.842865 
	C263.695435,230.916428 269.492645,240.457809 277.178497,248.389374 
	C284.886719,256.344055 294.391510,262.133911 305.337616,264.927185 
	C308.270660,265.675690 309.116455,267.026031 309.074432,270.003021 
	C308.898041,282.499146 308.987671,294.999207 309.004181,307.497772 
	C309.015839,316.332153 314.504669,321.999908 322.999725,322.000000 
	C331.494659,322.000092 336.984528,316.332123 336.995819,307.498352 
	C337.012665,294.333191 337.001404,281.167969 337.025513,267.101746 
z"/>
<path fill="#172A3A" opacity="1.000000" stroke="none" 
	d="
M337.013794,267.552246 
	C337.001404,281.167969 337.012665,294.333191 336.995819,307.498352 
	C336.984528,316.332123 331.494659,322.000092 322.999725,322.000000 
	C314.504669,321.999908 309.015839,316.332153 309.004181,307.497772 
	C308.987671,294.999207 308.898041,282.499146 309.074432,270.003021 
	C309.116455,267.026031 308.270660,265.675690 305.337616,264.927185 
	C294.391510,262.133911 284.886719,256.344055 277.178497,248.389374 
	C269.492645,240.457809 263.695435,230.916428 261.462799,219.842865 
	C259.093994,208.093918 257.710205,196.221512 259.991577,184.236435 
	C261.588959,175.844681 267.898346,172.807251 274.242950,173.184875 
	C280.903748,173.581314 287.101166,179.470169 287.145355,187.207443 
	C287.200470,196.858826 286.948364,206.851776 289.284637,216.075226 
	C293.368744,232.199188 310.267700,242.994156 326.806671,240.865799 
	C342.123596,238.894714 355.764008,228.149323 357.894867,210.750610 
	C358.874573,202.751312 359.029541,194.600540 358.889618,186.530029 
	C358.770386,179.655563 364.010101,173.030426 372.453156,173.005569 
	C380.923920,172.980637 386.344177,179.595261 386.071991,186.437256 
	C385.760925,194.257339 386.315460,202.114899 385.929413,209.928268 
	C385.276428,223.143219 380.210297,234.777420 371.662170,244.760147 
	C363.209961,254.630890 352.919495,261.859680 340.091797,265.082672 
	C338.971344,265.364197 338.043060,266.410614 337.013794,267.552246 
z"/>
</svg>